<svg width="14" height="20" viewBox="0 0 14 20" fill="none" xmlns="http://www.w3.org/2000/svg">
<path d="M3.66699 5.00008V3.33341C3.66699 2.89139 3.84259 2.46746 4.15515 2.1549C4.46771 1.84234 4.89163 1.66675 5.33366 1.66675H8.66699C9.10902 1.66675 9.53294 1.84234 9.8455 2.1549C10.1581 2.46746 10.3337 2.89139 10.3337 3.33341V5.00008M12.8337 5.00008V16.6667C12.8337 17.1088 12.6581 17.5327 12.3455 17.8453C12.0329 18.1578 11.609 18.3334 11.167 18.3334H2.83366C2.39163 18.3334 1.96771 18.1578 1.65515 17.8453C1.34259 17.5327 1.16699 17.1088 1.16699 16.6667V5.00008H12.8337Z" stroke="#CDCECE" stroke-width="2" stroke-linecap="round" stroke-linejoin="round"/>
</svg>
