<svg width="30" height="30" viewBox="0 0 30 30" fill="none" xmlns="http://www.w3.org/2000/svg">
<path d="M14.9867 1.66666C7.62665 1.66666 1.65332 7.63999 1.65332 15C1.65332 22.36 7.62665 28.3333 14.9867 28.3333C22.3467 28.3333 28.32 22.36 28.32 15C28.32 7.63999 22.3467 1.66666 14.9867 1.66666ZM19.8 10.12C21.2267 10.12 22.3733 11.2667 22.3733 12.6933C22.3733 14.12 21.2267 15.2667 19.8 15.2667C18.3733 15.2667 17.2267 14.12 17.2267 12.6933C17.2133 11.2667 18.3733 10.12 19.8 10.12ZM11.8 8.01332C13.5333 8.01332 14.9467 9.42666 14.9467 11.16C14.9467 12.8933 13.5333 14.3067 11.8 14.3067C10.0667 14.3067 8.65332 12.8933 8.65332 11.16C8.65332 9.41332 10.0533 8.01332 11.8 8.01332ZM11.8 20.1867V25.1867C8.59999 24.1867 6.06665 21.72 4.94665 18.5733C6.34665 17.08 9.83999 16.32 11.8 16.32C12.5067 16.32 13.4 16.4267 14.3333 16.6133C12.1467 17.7733 11.8 19.3067 11.8 20.1867ZM14.9867 25.6667C14.6267 25.6667 14.28 25.6533 13.9333 25.6133V20.1867C13.9333 18.2933 17.8533 17.3467 19.8 17.3467C21.2267 17.3467 23.6933 17.8667 24.92 18.88C23.36 22.84 19.5067 25.6667 14.9867 25.6667Z" fill="white"/>
</svg>
