<svg xmlns="http://www.w3.org/2000/svg" width="25" height="19" viewBox="0 0 25 19">
  <g id="Group_2332" data-name="Group 2332" transform="translate(-21650 5971)">
    <path id="Path_724" data-name="Path 724" d="M0,0H25V19H0Z" transform="translate(21650 -5971)" fill="none"/>
    <g id="Group_2333" data-name="Group 2333" transform="translate(21651.941 -6256.006)">
      <path id="Path_611" data-name="Path 611" d="M10.066,285.358a7.651,7.651,0,0,0-7.657,7.658v1.092a2.254,2.254,0,0,0-1.35,2.059v1.8a2.255,2.255,0,0,0,2.25,2.251h.9a.451.451,0,0,0,.449-.449v-5.407a.451.451,0,0,0-.449-.449h-.9v-.9a6.757,6.757,0,0,1,13.513,0v.9h-.947a.45.45,0,0,0-.4.449v5.407a.45.45,0,0,0,.449.449h.9v.452a.889.889,0,0,1-.9.9H11.869a.909.909,0,0,0-.9-.9h-1.8a.909.909,0,0,0-.9.9v.9a.91.91,0,0,0,.9.9h1.8a.91.91,0,0,0,.9-.9h4.053a1.809,1.809,0,0,0,1.8-1.8v-.644a2.254,2.254,0,0,0,1.35-2.06v-1.8a2.254,2.254,0,0,0-1.35-2.06v-1.092a7.652,7.652,0,0,0-7.658-7.658Zm-6.757,9.46h.449v4.5H3.31a1.336,1.336,0,0,1-1.35-1.35v-1.8a1.336,1.336,0,0,1,1.35-1.35Zm13.061,0h.452a1.336,1.336,0,0,1,1.35,1.35v1.8a1.336,1.336,0,0,1-1.35,1.35H16.37Zm-7.205,6.756h1.8v.9h-1.8Z" transform="translate(0 0)" fill="#fff" stroke="#fff" stroke-width="0.6"/>
    </g>
  </g>
</svg>
