<svg xmlns="http://www.w3.org/2000/svg" width="25" height="19" viewBox="0 0 25 19">
  <g id="Group_2330" data-name="Group 2330" transform="translate(-21650 5971)">
    <path id="Path_724" data-name="Path 724" d="M0,0H25V19H0Z" transform="translate(21650 -5971)" fill="none"/>
    <g id="Group_2326" data-name="Group 2326" transform="translate(21331.805 -5981)">
      <g id="Group" transform="translate(320.194 10.041)">
        <path id="Compound_Path" data-name="Compound Path" d="M25.1,11H8.307v6.433H4.7v9.53a2.553,2.553,0,0,0,2.479,2.621h14.99a3.017,3.017,0,0,0,2.93-3.1ZM8.307,26.963a1.129,1.129,0,1,1-2.254,0v-8.1H8.307Zm15.44-.477a1.625,1.625,0,0,1-1.578,1.668H9.388a2.718,2.718,0,0,0,.27-1.191V12.43H23.747Z" transform="translate(-4.7 -11)" fill="#fff"/>
        <path id="Compound_Path-2" data-name="Compound Path" d="M38.742,23.5H33.5v5h5.242Zm-1.43,3.574H34.93V24.93h2.383Z" transform="translate(-27.127 -20.522)" fill="#fff"/>
        <rect id="Path" width="5.242" height="1.43" transform="translate(12.132 3.455)" fill="#fff"/>
        <rect id="Path-2" data-name="Path" width="5.242" height="1.43" transform="translate(12.132 6.076)" fill="#fff"/>
        <rect id="Path-3" data-name="Path" width="11.675" height="1.43" transform="translate(5.699 10.364)" fill="#fff"/>
        <rect id="Path-4" data-name="Path" width="11.675" height="1.43" transform="translate(5.699 12.985)" fill="#fff"/>
      </g>
    </g>
  </g>
</svg>
