<svg xmlns="http://www.w3.org/2000/svg" width="25" height="19.329" viewBox="0 0 25 19.329">
  <g id="Group_2329" data-name="Group 2329" transform="translate(-21620 5971)">
    <path id="Path_723" data-name="Path 723" d="M0,0H25V19H0Z" transform="translate(21620 -5971)" fill="none"/>
    <g id="Group_2325" data-name="Group 2325" transform="translate(21378 -5980.381)">
      <g id="Group_576" data-name="Group 576" transform="translate(245.999 9.381)">
        <g id="noun_transactions_2496553" transform="matrix(0.999, 0.035, -0.035, 0.999, 0.617, 0.553)">
          <path id="Path_192" data-name="Path 192" d="M16.522,8.861a.366.366,0,0,0-.365.365A7.7,7.7,0,1,1,7.905,1.577l-.329.256a.375.375,0,0,0,.219.675.319.319,0,0,0,.219-.073l1.241-.949a.39.39,0,0,0,.146-.31A.346.346,0,0,0,9.238.883L8,.062a.362.362,0,0,0-.511.11.362.362,0,0,0,.11.511L7.85.847a8.427,8.427,0,1,0,9.037,8.4A.382.382,0,0,0,16.522,8.861Z" transform="translate(0 0)" fill="#fff" stroke="#fff" stroke-width="1"/>
        </g>
        <path id="Path_191" data-name="Path 191" d="M19.054,1.5,18,2.794l-.305.374h.021a.394.394,0,0,1,.395.395V16.874a5.39,5.39,0,0,0,1.2-.91A5.789,5.789,0,0,0,20,15.117V3.563a.394.394,0,0,1,.395-.395h.021ZM15.428,7.214V17.564h.026a5.4,5.4,0,0,0,1.863-.326V7.214Zm-2.683,3.3v6.324a5.318,5.318,0,0,0,1.889.658V10.518Zm-2.436,3.315a5.335,5.335,0,0,0,1.31,2.141c.11.111.221.21.337.31V13.833H10.309Z" transform="translate(-6.903 -1.5)" fill="#fff"/>
      </g>
    </g>
  </g>
</svg>
