<svg xmlns="http://www.w3.org/2000/svg" width="30" height="30" viewBox="0 0 30 30">
  <g id="noun_Bank_1696892" transform="translate(-118 201.488)">
    <path id="Path_143" data-name="Path 143" d="M31.25,14a.75.75,0,0,0,.75-.75v-3a.72.72,0,0,0-.4-.66l-14.25-7.5a.7.7,0,0,0-.69,0L2.405,9.59a.72.72,0,0,0-.4.66v3a.75.75,0,0,0,.75.75H6.5V27.5H2.75a.75.75,0,0,0-.75.75v3a.75.75,0,0,0,.75.75h28.5a.75.75,0,0,0,.75-.75v-3a.75.75,0,0,0-.75-.75H27.5V14Zm-12,13.5V14H23V27.5ZM14.75,14V27.5H11V14Zm3,13.5h-1.5V14h1.5ZM3.5,10.7,17,3.59,30.5,10.7v1.8H3.5ZM8,14H9.5V27.5H8ZM30.5,30.5H3.5V29h27Zm-4.5-3H24.5V14H26Z" transform="translate(116 -203.488)" fill="#3e593c"/>
  </g>
</svg>
