<svg xmlns="http://www.w3.org/2000/svg" width="35.884" height="36.134" viewBox="0 0 35.884 36.134">
  <g id="Group_1588" data-name="Group 1588" transform="translate(0 15.934) rotate(-42)">
    <g id="Group_1588-2" data-name="Group 1588" transform="translate(0 0)">
      <path id="Path_612" data-name="Path 612" d="M11.906,0A3.594,3.594,0,0,1,15.5,3.422a9.213,9.213,0,0,1,5.62,8.484v5.176a2.92,2.92,0,0,1-.229,5.832H2.925A2.92,2.92,0,0,1,2.7,17.082V11.906a9.212,9.212,0,0,1,5.62-8.484A3.6,3.6,0,0,1,11.906,0ZM9.778,5.273a6.965,6.965,0,0,0-4.836,6.633V17.3a2.023,2.023,0,0,1-2.021,2.023.674.674,0,1,0,0,1.348H20.888a.674.674,0,1,0,0-1.348A2.02,2.02,0,0,1,18.87,17.3V11.906a6.966,6.966,0,0,0-4.836-6.633l-.78-.25V3.591a1.348,1.348,0,0,0-2.7,0V5.023ZM7.638,22.914H9.884a2.022,2.022,0,0,0,4.044,0h2.246a4.268,4.268,0,0,1-8.537,0Z" fill="#6c7174"/>
    </g>
  </g>
</svg>
