<svg xmlns="http://www.w3.org/2000/svg" width="65.397" height="17" viewBox="0 0 65.397 17">
  <g id="Group_2119" data-name="Group 2119" transform="translate(-1202 -344)">
    <g id="Group_2118" data-name="Group 2118" transform="translate(13720 5431)">
      <path id="Path_687" data-name="Path 687" d="M39.966,13.624a3.533,3.533,0,0,0-2.506,1.034l-1.322,1.321a.781.781,0,1,0,1.106,1.1l1.319-1.319a1.983,1.983,0,1,1,2.8,2.8l-1.321,1.321a.781.781,0,1,0,1.1,1.1l1.319-1.32a3.541,3.541,0,0,0-2.505-6.047Z" transform="translate(-12496.108 -5098.624)" fill="#3e593c"/>
      <path id="Path_688" data-name="Path 688" d="M16.5,35.913a.786.786,0,0,0-.537.237L14.642,37.47a3.545,3.545,0,1,0,5.013,5.013l1.321-1.322a.781.781,0,1,0-1.1-1.1l-1.319,1.32a1.983,1.983,0,1,1-2.806-2.8l1.322-1.321A.781.781,0,0,0,16.5,35.913Z" transform="translate(-12478 -5116.727)" fill="#3e593c"/>
      <path id="Path_689" data-name="Path 689" d="M35.233,30.61a.78.78,0,0,0-.536.238l-3.833,3.83a.781.781,0,1,0,1.105,1.1L35.8,31.952A.781.781,0,0,0,35.233,30.61Z" transform="translate(-12491.829 -5112.42)" fill="#3e593c"/>
    </g>
    <text id="DE-LINK" transform="translate(1202 357)" fill="#3e593c" font-size="17" font-family="PFHandbookPro-Regular, PF Handbook Pro"><tspan x="0" y="0">DE-LINK</tspan></text>
  </g>
</svg>
