<svg id="Group_1737" data-name="Group 1737" xmlns="http://www.w3.org/2000/svg" width="16.228" height="18.488" viewBox="0 0 16.228 18.488">
  <path id="Path_635" data-name="Path 635" d="M38.814,42.2a.784.784,0,0,0,.784-.784V32.944a.784.784,0,1,0-1.568,0V41.43A.784.784,0,0,0,38.814,42.2Z" transform="translate(-32.597 -26.917)" fill="#6c7174"/>
  <path id="Path_636" data-name="Path 636" d="M55.754,42.2a.784.784,0,0,0,.784-.784V32.944a.784.784,0,1,0-1.568,0V41.43A.784.784,0,0,0,55.754,42.2Z" transform="translate(-45.743 -26.917)" fill="#6c7174"/>
  <path id="Path_637" data-name="Path 637" d="M14.554,12.345h.629V23.319A3.924,3.924,0,0,0,19.1,27.238h5.563a3.924,3.924,0,0,0,3.919-3.919V12.345h.629a.784.784,0,1,0,0-1.568H25.273V10.43a1.682,1.682,0,0,0-1.68-1.68H20.175a1.682,1.682,0,0,0-1.68,1.68v.347H14.554a.784.784,0,1,0,0,1.568Zm5.51-1.915a.112.112,0,0,1,.112-.112h3.418a.112.112,0,0,1,.112.112v.347H20.063Zm-3.312,1.915H27.017V23.319a2.354,2.354,0,0,1-2.352,2.352H19.1a2.354,2.354,0,0,1-2.352-2.352Z" transform="translate(-13.77 -8.75)" fill="#6c7174"/>
</svg>
