<svg id="Group_1737" data-name="Group 1737" xmlns="http://www.w3.org/2000/svg" width="30.924" height="35.23" viewBox="0 0 30.924 35.23">
  <path id="Path_635" data-name="Path 635" d="M39.524,51.3A1.494,1.494,0,0,0,41.017,49.8V33.654a1.494,1.494,0,1,0-2.987,0V49.824A1.494,1.494,0,0,0,39.524,51.3Z" transform="translate(-27.676 -22.169)" fill="#6c7174"/>
  <path id="Path_636" data-name="Path 636" d="M56.464,51.3A1.494,1.494,0,0,0,57.957,49.8V33.654a1.494,1.494,0,1,0-2.987,0V49.824A1.494,1.494,0,0,0,56.464,51.3Z" transform="translate(-37.387 -22.169)" fill="#6c7174"/>
  <path id="Path_637" data-name="Path 637" d="M15.264,15.6h1.2V36.512a7.477,7.477,0,0,0,7.469,7.469h10.6A7.477,7.477,0,0,0,42,36.512V15.6h1.2a1.494,1.494,0,1,0,0-2.987H35.689v-.662a3.205,3.205,0,0,0-3.2-3.2H25.976a3.205,3.205,0,0,0-3.2,3.2v.662H15.264a1.494,1.494,0,0,0,0,2.987Zm10.5-3.649a.213.213,0,0,1,.213-.213h6.513a.213.213,0,0,1,.213.213v.662H25.762ZM19.45,15.6H39.014V36.512a4.485,4.485,0,0,1-4.481,4.481h-10.6a4.485,4.485,0,0,1-4.481-4.481Z" transform="translate(-13.77 -8.75)" fill="#6c7174"/>
</svg>
