<svg xmlns="http://www.w3.org/2000/svg" width="17.724" height="17.144" viewBox="0 0 17.724 17.144">
  <g id="Group_1736" data-name="Group 1736" transform="translate(0 0)">
    <path id="Path_633" data-name="Path 633" d="M308.777,131.939a.109.109,0,0,0-.027.049l-.892,3.271a.568.568,0,0,0,.141.54.558.558,0,0,0,.393.16.543.543,0,0,0,.146-.019l3.247-.884c.005,0,.008.005.011.005a.139.139,0,0,0,.1-.041l8.682-8.679a1.389,1.389,0,0,0,.4-.993,1.692,1.692,0,0,0-.507-1.188l-.819-.822a1.684,1.684,0,0,0-1.188-.51,1.389,1.389,0,0,0-.993.4l-8.679,8.682c-.011.008-.008.022-.014.03m10.952-6.452-.862.863-1.4-1.421.849-.849a.4.4,0,0,1,.548.041l.822.822a.443.443,0,0,1,.136.312.342.342,0,0,1-.095.233m-9.409,6.588,6.265-6.265,1.4,1.421-6.254,6.254Zm-1.142,2.541.453-1.663,1.207,1.207-1.66.456Zm0,0" transform="translate(-303.252 -122.441)" fill="#6c7174"/>
    <path id="Path_634" data-name="Path 634" d="M106.239,110.824a.6.6,0,0,0-.6.6v8.093a.771.771,0,0,1-.77.77H91.178a.771.771,0,0,1-.77-.77V106.308a.771.771,0,0,1,.77-.77H100a.6.6,0,1,0,0-1.2H91.089a1.879,1.879,0,0,0-1.877,1.877v13.39a1.877,1.877,0,0,0,1.877,1.877h13.873a1.877,1.877,0,0,0,1.877-1.877v-8.185a.6.6,0,0,0-.6-.6" transform="translate(-89.212 -104.339)" fill="#6c7174"/>
  </g>
</svg>
