<svg xmlns="http://www.w3.org/2000/svg" width="21" height="21" viewBox="0 0 21 21">
  <g id="Group_2331" data-name="Group 2331" transform="translate(-1260 -429)" opacity="0.5">
    <path id="Path_667" data-name="Path 667" d="M10.5,0A10.5,10.5,0,1,1,0,10.5,10.5,10.5,0,0,1,10.5,0Z" transform="translate(1260 429)" fill="#cdcece"/>
    <path id="Path_668" data-name="Path 668" d="M19.537,20.918l-5.808,6.04a.8.8,0,0,1-1.164,0l-2.9-3.04a.883.883,0,0,1,0-1.216.8.8,0,0,1,1.164,0l2.328,2.432L18.385,19.7a.8.8,0,0,1,1.164,0A.9.9,0,0,1,19.537,20.918Z" transform="translate(1256 416.289)" fill="#fff" fill-rule="evenodd"/>
  </g>
</svg>
