<svg id="Group_552" data-name="Group 552" xmlns="http://www.w3.org/2000/svg" width="26.691" height="30.603" viewBox="0 0 26.691 30.603">
  <g id="Group_550" data-name="Group 550">
    <path id="Path_189" data-name="Path 189" d="M41.512,45.541a7.629,7.629,0,0,0,7.621-7.621V32.646a.841.841,0,0,0-.84-.84H43.019A7.664,7.664,0,0,0,35.9,36.731l-.112.3-.112-.3a7.664,7.664,0,0,0-7.119-4.925H23.282a.841.841,0,0,0-.84.84V37.92a7.629,7.629,0,0,0,7.621,7.621h4.884v1.976l-.109.01A10.242,10.242,0,0,0,27.662,51.5l-.036.047H24.518a.84.84,0,0,0-.828.982l1.565,9.181a.838.838,0,0,0,.828.7H45.491a.839.839,0,0,0,.829-.7l1.565-9.181a.84.84,0,0,0-.828-.982H43.95l-.036-.047a10.245,10.245,0,0,0-7.176-3.973l-.109-.01V45.541h4.884Zm-4.433-6.114a5.947,5.947,0,0,1,5.94-5.94h4.433V37.92a5.947,5.947,0,0,1-5.94,5.94H38.267l5.346-5.346a.841.841,0,0,0,0-1.188.86.86,0,0,0-1.188,0l-5.346,5.346ZM34.5,42.672,29.15,37.326a.86.86,0,0,0-1.188,0,.841.841,0,0,0,0,1.188l5.346,5.346H30.062a5.947,5.947,0,0,1-5.94-5.94V33.487h4.433a5.947,5.947,0,0,1,5.94,5.94v3.245ZM46.061,53.228l-1.279,7.5H26.793l-1.279-7.5Zm-4.574-1.89.234.209H29.854l.234-.209a8.542,8.542,0,0,1,11.4,0Z" transform="translate(-22.442 -31.806)" fill="#3e593c"/>
  </g>
</svg>
