<svg xmlns="http://www.w3.org/2000/svg" width="47.662" height="48.475" viewBox="0 0 47.662 48.475">
  <g id="Group_2065" data-name="Group 2065" transform="translate(-165.38 -252)">
    <g id="noun_File_3325383" transform="translate(165.38 252)">
      <g id="Group_987" data-name="Group 987" transform="translate(0 0)">
        <path id="Path_447" data-name="Path 447" d="M46.6,15.55h0a1.719,1.719,0,0,0-.089-.17.373.373,0,0,0-.057-.057.519.519,0,0,0-.105-.122h0L34.491,3.926h0a1.225,1.225,0,0,0-.365-.235h0a1.225,1.225,0,0,0-.43-.081H14.464A6.084,6.084,0,0,0,8.38,9.694V43.568a6.084,6.084,0,0,0,6.084,6.084H40.616A6.084,6.084,0,0,0,46.7,43.568V16.029a1.176,1.176,0,0,0-.1-.479ZM34.84,7.666l7.552,7.146H34.84Zm5.743,39.552H14.464a3.658,3.658,0,0,1-3.65-3.65V9.71a3.658,3.658,0,0,1,3.65-3.65H32.407v9.969a1.217,1.217,0,0,0,1.217,1.217H44.266V43.568a3.658,3.658,0,0,1-3.65,3.65ZM38.9,32.179A1.217,1.217,0,0,1,37.679,33.4H17.424a1.217,1.217,0,1,1,0-2.433h20.23A1.217,1.217,0,0,1,38.9,32.179Zm0,7.138a1.217,1.217,0,0,1-1.217,1.217H17.424a1.217,1.217,0,1,1,0-2.433h20.23A1.217,1.217,0,0,1,38.9,39.317Z" transform="translate(-8.38 -3.61)" fill="#6c7174"/>
      </g>
      <g id="noun_108177_cc" transform="translate(8.319 14.926)">
        <path id="Shape" d="M6.854.892V0H0V.892H2.373A2.107,2.107,0,0,1,4.446,2.26H0v.892H4.446A2.107,2.107,0,0,1,2.373,4.52H0v.892H2.07L4.233,9.424l.845-.449L3.113,5.33A2.863,2.863,0,0,0,5.368,3.152H6.854V2.26H5.368A2.591,2.591,0,0,0,4.625.892H6.854Z" fill="#6c7174" stroke="#6c7174" stroke-miterlimit="10" stroke-width="0.6"/>
      </g>
    </g>
    <circle id="Ellipse_191" data-name="Ellipse 191" cx="16.223" cy="16.223" r="16.223" transform="translate(180.484 267.412)" fill="#fff"/>
    <path id="Path_448" data-name="Path 448" d="M39.705,37.3l-5.348-5.312a13.428,13.428,0,1,0-10.55,5.128,13.251,13.251,0,0,0,8.242-2.857l5.312,5.385a1.6,1.6,0,0,0,1.172.476,1.764,1.764,0,0,0,1.172-.476A1.636,1.636,0,0,0,39.705,37.3Zm-5.788-13.59a10.131,10.131,0,1,1-2.967-7.143A10.03,10.03,0,0,1,33.918,23.707Z" transform="translate(172.842 260.357)" fill="#6c7174"/>
  </g>
</svg>
