<svg id="Group_1633" data-name="Group 1633" xmlns="http://www.w3.org/2000/svg" width="40.866" height="47" viewBox="0 0 40.866 47">
  <g id="_17-money_bag" data-name="17-money bag">
    <path id="Path_1" data-name="Path 1" d="M30.556,46.388H14.878A2.878,2.878,0,0,1,12,43.51V34.878A2.878,2.878,0,0,1,14.878,32h6.714a.959.959,0,0,1,.678.281l1.637,1.637h5.358A2.878,2.878,0,0,1,32.1,37.276a2.643,2.643,0,0,1-.127.48H32.7L36.261,34.2a5.033,5.033,0,0,1,7.111,0,.959.959,0,0,1,.032,1.324l-7.88,8.667a6.726,6.726,0,0,1-4.968,2.2ZM14.878,33.918a.959.959,0,0,0-.959.959V43.51a.959.959,0,0,0,.959.959H30.556a4.8,4.8,0,0,0,3.549-1.57l7.173-7.889a3.114,3.114,0,0,0-3.66.546l-3.837,3.837a.959.959,0,0,1-.679.281H21.592V37.755h7.571a1.039,1.039,0,0,0,1.047-.791.959.959,0,0,0-.945-1.127H23.51a.959.959,0,0,1-.678-.281l-1.637-1.637Z" transform="translate(-2.787 -0.347)" fill="#3e593c"/>
    <path id="Path_2" data-name="Path 2" d="M10.673,47.265H3.959A.959.959,0,0,1,3,46.306V30.959A.959.959,0,0,1,3.959,30h6.714a2.878,2.878,0,0,1,2.878,2.878v11.51A2.878,2.878,0,0,1,10.673,47.265ZM4.918,45.347h5.755a.959.959,0,0,0,.959-.959V32.878a.959.959,0,0,0-.959-.959H4.918Z" transform="translate(-3 -0.265)" fill="#3e593c"/>
    <rect id="Rectangle_1" data-name="Rectangle 1" width="2" height="2" transform="translate(4 41)" fill="#969f6e"/>
    <path id="Path_3" data-name="Path 3" d="M23.841,30.1A10.7,10.7,0,0,1,13,19.551,10.7,10.7,0,0,1,23.841,9,10.7,10.7,0,0,1,34.683,19.551,10.712,10.712,0,0,1,23.841,30.1Zm0-19.184a8.754,8.754,0,0,0-8.87,8.633,8.873,8.873,0,0,0,17.74,0A8.764,8.764,0,0,0,23.841,10.918Z" transform="translate(-3.408 -0.035)" fill="#3e593c"/>
    <path id="Path_4" data-name="Path 4" d="M25.714,10.755H21.878a2.878,2.878,0,0,1,0-5.755h3.837a2.878,2.878,0,0,1,0,5.755ZM21.878,6.918a.959.959,0,1,0,0,1.918h3.837a.959.959,0,1,0,0-1.918Z" transform="translate(-3.363 -0.204)" fill="#3e593c"/>
    <path id="Path_5" data-name="Path 5" d="M26.5,6.249l-1.644-.988,2-3.343h-6.2l2,3.343-1.644.988-2.878-4.8A.959.959,0,0,1,18.959,0h9.592a.959.959,0,0,1,.822,1.453Z" transform="translate(-3.322 0)" fill="#3e593c"/>
    <rect id="Rectangle_4" data-name="Rectangle 4" width="2" height="5" transform="translate(35 10)" fill="#6c7174"/>
    <rect id="Rectangle_5" data-name="Rectangle 5" width="5" height="1" transform="translate(34 12)" fill="#6c7174"/>
    <rect id="Rectangle_6" data-name="Rectangle 6" width="2" height="9" transform="translate(35 16)" fill="#6c7174"/>
    <rect id="Rectangle_7" data-name="Rectangle 7" width="2" height="2" transform="translate(35 28)" fill="#6c7174"/>
    <rect id="Rectangle_8" data-name="Rectangle 8" width="2" height="6" transform="translate(3 1)" fill="#6c7174"/>
    <rect id="Rectangle_9" data-name="Rectangle 9" width="6" height="2" transform="translate(1 3)" fill="#6c7174"/>
    <rect id="Rectangle_10" data-name="Rectangle 10" width="2" height="8" transform="translate(3 10)" fill="#6c7174"/>
    <rect id="Rectangle_11" data-name="Rectangle 11" width="2" height="2" transform="translate(3 19)" fill="#6c7174"/>
  </g>
  <g id="noun_108177_cc" transform="translate(17.561 15.649)">
    <path id="Shape" d="M6.357.828V0H0V.828H2.2A1.955,1.955,0,0,1,4.123,2.1H0v.828H4.123A1.954,1.954,0,0,1,2.2,4.192H0V5.02H1.919L3.926,8.741l.784-.416L2.887,4.944a2.655,2.655,0,0,0,2.092-2.02H6.357V2.1H4.979A2.4,2.4,0,0,0,4.29.828H6.357Z" fill="#3e593c" stroke="#3e593c" stroke-miterlimit="10" stroke-width="0.6"/>
  </g>
</svg>
