<svg xmlns="http://www.w3.org/2000/svg" width="50.125" height="44.424" viewBox="0 0 50.125 44.424">
  <g id="Group_796" data-name="Group 796" transform="translate(-130.5 -60.576)">
    <g id="OTP_Icon_1" data-name="OTP Icon 1" transform="translate(130.5 60.576)">
      <g id="Group_631" data-name="Group 631">
        <path id="Path_394" data-name="Path 394" d="M51,963.367a5.153,5.153,0,0,1,5.126,5.126v22.784A5.153,5.153,0,0,1,51,996.4h-3.24l.979,9.505a1.709,1.709,0,0,1-2.9,1.388L34.907,996.4H30.493v1.175a3.989,3.989,0,0,1-3.969,3.952h-8.33l-5.874,5.767a1.709,1.709,0,0,1-2.884-1.513l.748-4.254H9.969A3.989,3.989,0,0,1,6,997.578V986.685a3.989,3.989,0,0,1,3.969-3.952h2.866v-14.24a5.153,5.153,0,0,1,5.126-5.126H51Zm0,3.418H17.962a1.669,1.669,0,0,0-1.709,1.709v22.784a1.669,1.669,0,0,0,1.709,1.709H35.619a1.71,1.71,0,0,1,1.21.5l8.028,7.992-.676-6.622a1.709,1.709,0,0,1,1.691-1.869H51a1.669,1.669,0,0,0,1.709-1.709V968.493A1.669,1.669,0,0,0,51,966.784Zm-5.126,10.253a2.848,2.848,0,1,1-2.848,2.848A2.848,2.848,0,0,1,45.872,977.037Zm-11.41,0a2.848,2.848,0,1,1-2.848,2.848A2.848,2.848,0,0,1,34.462,977.037Zm-11.374,0a2.848,2.848,0,1,1-2.848,2.848A2.848,2.848,0,0,1,23.088,977.037Zm-10.253,9.114H9.969a.513.513,0,0,0-.552.534v10.894a.513.513,0,0,0,.552.534H12.23a1.709,1.709,0,0,1,1.691,1.994l-.178,1.015,2.563-2.528a1.709,1.709,0,0,1,1.193-.48h9.025a.513.513,0,0,0,.552-.534V996.4H17.962a5.153,5.153,0,0,1-5.126-5.126Z" transform="translate(-6 -963.367)" fill="#6c7174"/>
      </g>
    </g>
  </g>
</svg>
