<svg xmlns="http://www.w3.org/2000/svg" width="46" height="40" viewBox="0 0 46 40">
  <g id="Group_1441" data-name="Group 1441" transform="translate(16146 12689)">
    <g id="Group_1432" data-name="Group 1432" transform="translate(-16146 -12689)">
      <g id="Rectangle_1110" data-name="Rectangle 1110" fill="none" stroke="#fff" stroke-width="1">
        <rect width="46" height="40" stroke="none"/>
        <rect x="0.5" y="0.5" width="45" height="39" fill="none"/>
      </g>
    </g>
    <g id="headphones" transform="translate(-16166 -12682)">
      <g id="Group_1434" data-name="Group 1434" transform="translate(31)">
        <path id="Path_473" data-name="Path 473" d="M42.649,0A11.662,11.662,0,0,0,31,11.649v6.316a2.332,2.332,0,0,0,2.33,2.33h.91a2.33,2.33,0,0,0,4.526-.777V13.2a2.33,2.33,0,0,0-4.526-.777h-.91a2.319,2.319,0,0,0-.777.134v-.91a10.1,10.1,0,1,1,20.191,0v.91a2.319,2.319,0,0,0-.777-.134h-.91a2.33,2.33,0,0,0-4.526.777v6.316a2.33,2.33,0,0,0,3.006,2.229A2.334,2.334,0,0,1,47.309,23.4H44.845a2.33,2.33,0,1,0,0,1.553h2.463a3.887,3.887,0,0,0,3.883-3.883V20.3h.777a2.332,2.332,0,0,0,2.33-2.33V11.649A11.662,11.662,0,0,0,42.649,0ZM35.66,13.2a.777.777,0,1,1,1.553,0v6.316a.777.777,0,0,1-1.553,0Zm-2.33.777h.777v4.763H33.33a.777.777,0,0,1-.777-.777v-3.21A.777.777,0,0,1,33.33,13.979Zm9.319,10.976a.777.777,0,1,1,.777-.777A.777.777,0,0,1,42.649,24.955Zm6.989-5.436a.777.777,0,1,1-1.553,0V13.2a.777.777,0,1,1,1.553,0Zm3.106-1.553a.777.777,0,0,1-.777.777h-.777V13.979h.777a.777.777,0,0,1,.777.777Z" transform="translate(-31)" fill="#cdcece"/>
      </g>
    </g>
  </g>
</svg>
