<svg xmlns="http://www.w3.org/2000/svg" width="34.43" height="34.447" viewBox="0 0 34.43 34.447">
  <path id="Path_492" data-name="Path 492" d="M26.347,10.845,10.86,26.333A.9.9,0,0,0,12.129,27.6L27.616,12.114a.9.9,0,0,0-1.269-1.268Zm5.069-3.8A17.223,17.223,0,1,0,7.059,31.4,17.223,17.223,0,0,0,31.417,7.045ZM30.148,30.134A15.43,15.43,0,0,1,8.328,8.313,15.43,15.43,0,0,1,30.148,30.134ZM23.9,21.219A2.669,2.669,0,1,0,25.79,22,2.651,2.651,0,0,0,23.9,21.219Zm.619,3.288a.9.9,0,0,1-1.237,0,.875.875,0,0,1,1.237-1.237A.877.877,0,0,1,24.522,24.507Zm-9.949-7.28a2.668,2.668,0,1,0-1.887-.782A2.649,2.649,0,0,0,14.573,17.227Zm-.619-3.288a.875.875,0,1,1,1.237,1.237.894.894,0,0,1-1.236,0,.876.876,0,0,1,0-1.237Z" transform="translate(-2.023 -2)" fill="#6c7174"/>
</svg>
