<svg xmlns="http://www.w3.org/2000/svg" width="242.448" height="63.067" viewBox="0 0 242.448 63.067">
  <g id="Group_2311" data-name="Group 2311" transform="translate(-78.77 -123.441)">
    <g id="noun_thumb_1517797" transform="translate(170.605 130.738)">
      <path id="Path_207" data-name="Path 207" d="M59.851,60.091H48.329a1.93,1.93,0,0,1-1.92-2.173l-2.776,1.851a1.922,1.922,0,0,1-1.065.323H18.614a5.784,5.784,0,0,1-5.536-4.18L8.3,39.155a7.678,7.678,0,0,1,7.38-9.792h9.606V19.812a5.812,5.812,0,0,1,10.351-3.631L46.815,30.157a1.883,1.883,0,0,1,1.514-.794H59.851a1.92,1.92,0,0,1,1.92,1.92V58.171A1.92,1.92,0,0,1,59.851,60.091ZM32.635,18.581a1.971,1.971,0,0,0-3.511,1.231V31.284A1.92,1.92,0,0,1,27.2,33.2H15.677a3.838,3.838,0,0,0-3.685,4.9l4.781,16.756a1.923,1.923,0,0,0,1.842,1.393H41.986L46.408,53.3V35.8ZM57.931,33.2H50.249V56.25h7.682Z" transform="translate(-7.997 -14)" fill="#6a7c55"/>
      <path id="Path_208" data-name="Path 208" d="M77,27.92A1.92,1.92,0,1,0,78.92,26,1.92,1.92,0,0,0,77,27.92Z" transform="translate(-32.828 8.568)" fill="#6a7c55"/>
    </g>
    <g id="Group_598" data-name="Group 598" transform="translate(78.77 123.441)">
      <path id="Path_215" data-name="Path 215" d="M64.872,63.125C58.145,65.69,56.585,65,54.008,58.287c2.577,6.71,1.885,8.266-4.855,10.86,6.74-2.59,8.287-1.889,10.868,4.846C57.44,67.258,58.145,65.69,64.872,63.125Z" transform="translate(0.91 -47.532)" fill="#d9dccb"/>
      <path id="Path_217" data-name="Path 217" d="M80.312,48.583C69.981,52.538,67.6,51.5,63.662,41.153,67.6,51.5,66.544,53.86,56.232,57.815c10.312-3.955,12.695-2.894,16.649,7.411C68.92,54.921,69.981,52.538,80.312,48.583Z" transform="translate(-56.232 -25.251)" fill="#d9dccb"/>
      <path id="Path_219" data-name="Path 219" d="M72.21,46.083c-6.855,2.624-8.432,1.933-11.048-4.93,2.616,6.864,1.912,8.432-4.93,11.056,6.842-2.624,8.424-1.92,11.048,4.918C64.651,50.289,65.355,48.708,72.21,46.083Z" transform="translate(-14.288 -2.665)" fill="#babab8"/>
      <path id="Path_216" data-name="Path 216" d="M53.754,49.148c-6.735,2.565-8.283,1.885-10.864-4.846,2.582,6.731,1.889,8.279-4.859,10.86,6.752-2.582,8.287-1.889,10.881,4.855C46.322,53.277,47.023,51.717,53.754,49.148Z" transform="translate(125.896 -17.663)" fill="#d9dccb"/>
      <path id="Path_220" data-name="Path 220" d="M69.646,54.047C56.1,59.2,52.992,57.837,47.8,44.3c5.191,13.535,3.8,16.646-9.77,21.837,13.577-5.191,16.663-3.8,21.879,9.761C54.7,62.349,56.111,59.212,69.646,54.047Z" transform="translate(150.633 -44.302)" fill="#95a583"/>
      <path id="Path_222" data-name="Path 222" d="M56.324,49.94c-7.836,2.984-9.637,2.193-12.64-5.638,3,7.832,2.2,9.632-5.653,12.635,7.856-3,9.641-2.2,12.66,5.648C47.677,54.744,48.493,52.929,56.324,49.94Z" transform="translate(186.124 -12.703)" fill="#babab8"/>
      <path id="Path_221" data-name="Path 221" d="M60.241,51.148c-9.514,3.623-11.7,2.663-15.347-6.846C48.541,53.81,47.563,56,38.031,59.643,47.569,56,49.737,56.974,53.4,66.5,49.743,56.98,50.732,54.777,60.241,51.148Z" transform="translate(154.935 -3.433)" fill="#d9dccb"/>
    </g>
  </g>
</svg>
