<svg xmlns="http://www.w3.org/2000/svg" width="38.024" height="38.445" viewBox="0 0 38.024 38.445">
  <g id="Group_592" data-name="Group 592" transform="translate(0.687 0.688)" opacity="0.4">
    <g id="noun_transactions_2496553" transform="translate(0 13.518) rotate(-31)">
      <path id="Path_192" data-name="Path 192" d="M25.68,13.773a.569.569,0,0,0-.568.568A11.974,11.974,0,1,1,12.287,2.451l-.511.4a.583.583,0,0,0,.341,1.05.5.5,0,0,0,.341-.114l1.93-1.476a.606.606,0,0,0,.227-.482.537.537,0,0,0-.255-.454L12.428.1a.563.563,0,0,0-.795.17.563.563,0,0,0,.17.795l.4.255A13.1,13.1,0,1,0,26.247,14.369.594.594,0,0,0,25.68,13.773Z" fill="#6a7c55" stroke="#6a7c55" stroke-width="1"/>
    </g>
    <path id="Path_191" data-name="Path 191" d="M23.9,1.5,22.257,3.512l-.474.581h.033a.612.612,0,0,1,.613.613V25.4a8.377,8.377,0,0,0,1.865-1.415,9,9,0,0,0,1.079-1.317V4.706a.612.612,0,0,1,.613-.613h.033Zm-5.635,8.881V26.467h.041A8.392,8.392,0,0,0,21.2,25.96V10.381ZM14.1,15.517v9.83a8.265,8.265,0,0,0,2.936,1.022V15.517Zm-3.786,5.152A8.291,8.291,0,0,0,12.345,24c.172.172.343.327.523.483V20.669h-2.56Z" transform="translate(-0.285 1.986)" fill="#6a7c55"/>
  </g>
</svg>
