<svg id="Group_550" data-name="Group 550" xmlns="http://www.w3.org/2000/svg" width="35.039" height="40.175" viewBox="0 0 35.039 40.175">
  <path id="Path_189" data-name="Path 189" d="M47.477,49.837a10.016,10.016,0,0,0,10-10V32.909a1.1,1.1,0,0,0-1.1-1.1H49.455a10.061,10.061,0,0,0-9.346,6.466l-.147.388-.147-.388a10.061,10.061,0,0,0-9.346-6.466H23.545a1.1,1.1,0,0,0-1.1,1.1v6.923a10.016,10.016,0,0,0,10,10h6.412V52.43l-.143.013a13.445,13.445,0,0,0-9.421,5.216l-.048.062H25.167A1.1,1.1,0,0,0,24.08,59.01l2.055,12.053a1.1,1.1,0,0,0,1.087.918H52.7a1.1,1.1,0,0,0,1.088-.918L55.843,59.01a1.1,1.1,0,0,0-1.087-1.289H50.677l-.048-.062a13.449,13.449,0,0,0-9.421-5.216l-.143-.013V49.837h6.411Zm-5.82-8.026a7.807,7.807,0,0,1,7.8-7.8h5.82v5.82a7.807,7.807,0,0,1-7.8,7.8h-4.26l7.018-7.018a1.1,1.1,0,0,0,0-1.56,1.129,1.129,0,0,0-1.56,0l-7.018,7.018Zm-3.39,4.26-7.018-7.018a1.129,1.129,0,0,0-1.56,0,1.1,1.1,0,0,0,0,1.56l7.018,7.018h-4.26a7.807,7.807,0,0,1-7.8-7.8v-5.82h5.819a7.807,7.807,0,0,1,7.8,7.8v4.26ZM53.448,59.928l-1.679,9.846H28.153l-1.679-9.846Zm-6.005-2.481.307.275H32.173l.307-.275a11.213,11.213,0,0,1,14.963,0Z" transform="translate(-22.442 -31.806)" fill="#3e593c"/>
</svg>
