<svg id="Group_553" data-name="Group 553" xmlns="http://www.w3.org/2000/svg" width="27" height="27" viewBox="0 0 27 27">
  <g id="Rectangle_134" data-name="Rectangle 134" fill="#fff" stroke="#3e593c" stroke-width="2">
    <rect width="27" height="27" rx="3" stroke="none"/>
    <rect x="1" y="1" width="25" height="25" rx="2" fill="none"/>
  </g>
  <line id="Line_36" data-name="Line 36" x2="26.1" transform="translate(0.544 8.037)" fill="none" stroke="#3e593c" stroke-width="2"/>
  <g id="noun_108177_cc" transform="translate(5.094 12.906)">
    <path id="Shape" d="M6.628.863V0H0V.863H2.294a2.038,2.038,0,0,1,2,1.322H0v.863H4.3a2.038,2.038,0,0,1-2,1.322H0v.863H2l2.092,3.88.817-.434L3.01,5.154A2.768,2.768,0,0,0,5.191,3.048H6.628V2.185H5.191A2.505,2.505,0,0,0,4.472.863H6.628Z" fill="#6c7174" stroke="#3e593c" stroke-miterlimit="10" stroke-width="0.6"/>
  </g>
  <g id="Rectangle_91" data-name="Rectangle 91" transform="translate(15 13)" fill="#fff" stroke="#3e593c" stroke-width="2">
    <rect width="8" height="9" stroke="none"/>
    <rect x="1" y="1" width="6" height="7" fill="none"/>
  </g>
</svg>
