<svg xmlns="http://www.w3.org/2000/svg" width="158" height="151" viewBox="0 0 158 151">
  <g id="Group_1618" data-name="Group 1618" transform="translate(7530.298 10761)">
    <g id="Rectangle_1167" data-name="Rectangle 1167" transform="translate(-7530.298 -10761)" fill="#fff" stroke="#707070" stroke-width="1" opacity="0">
      <rect width="158" height="151" stroke="none"/>
      <rect x="0.5" y="0.5" width="157" height="150" fill="none"/>
    </g>
    <g id="noun_growing_digital_money_2211491" data-name="noun_growing digital money_2211491" transform="translate(-7502.38 -10735.162)" opacity="0.103">
      <path id="Path_206" data-name="Path 206" d="M23.169,63.253H18.627V40.542H9.542V63.253H5V38.271A2.271,2.271,0,0,1,7.271,36H20.9a2.271,2.271,0,0,1,2.271,2.271Z" transform="translate(5.602 35.203)" fill="#969f6e"/>
      <path id="Path_207" data-name="Path 207" d="M33.169,73.422H28.627V32.542H19.542v40.88H15V30.271A2.271,2.271,0,0,1,17.271,28H30.9a2.271,2.271,0,0,1,2.271,2.271Z" transform="translate(15.958 25.035)" fill="#969f6e"/>
      <path id="Path_208" data-name="Path 208" d="M29.542,40.982H25V18.271A2.271,2.271,0,0,1,27.271,16H40.9a2.271,2.271,0,0,1,2.271,2.271V31.9H38.626V20.542H29.542Z" transform="translate(27.063 13.526)" fill="#969f6e"/>
      <path id="Path_209" data-name="Path 209" d="M53.169,45.608H48.627V11.542H39.542v31.8H35V9.271A2.271,2.271,0,0,1,37.271,7H50.9a2.271,2.271,0,0,1,2.271,2.271Z" transform="translate(37.366 4.551)" fill="#969f6e"/>
      <rect id="Rectangle_1027" data-name="Rectangle 1027" width="83.508" height="4.542" transform="translate(2.185 62.183) rotate(-45)" fill="#969f6e"/>
      <rect id="Rectangle_1028" data-name="Rectangle 1028" width="5.413" height="17.592" transform="translate(58.394)" fill="#969f6e"/>
      <rect id="Rectangle_1029" data-name="Rectangle 1029" width="17.592" height="5.413" transform="translate(45.295)" fill="#969f6e"/>
      <path id="Path_210" data-name="Path 210" d="M51.253,78.506A27.253,27.253,0,1,1,78.506,51.253,27.253,27.253,0,0,1,51.253,78.506Zm0-49.964A22.711,22.711,0,1,0,73.964,51.253,22.711,22.711,0,0,0,51.253,28.542Z" transform="translate(23.384 19.95)" fill="#969f6e"/>
      <rect id="Rectangle_1030" data-name="Rectangle 1030" width="101.89" height="5.413" transform="translate(0 93.93)" fill="#969f6e"/>
    </g>
  </g>
</svg>
