<svg xmlns="http://www.w3.org/2000/svg" width="35.639" height="35.758" viewBox="0 0 35.639 35.758">
  <path id="Path_653" data-name="Path 653" d="M37.907,17.868V14.779a4.58,4.58,0,0,0-4.554-4.554H30.224l.277.277a1.34,1.34,0,0,1,0,1.94,1.435,1.435,0,0,1-1.98,0L25.908,9.829a1.34,1.34,0,0,1,0-1.94l2.614-2.614a1.372,1.372,0,1,1,1.94,1.94l-.277.277h3.128a7.335,7.335,0,0,1,7.326,7.326v3.128a1.4,1.4,0,0,1-1.386,1.386A1.441,1.441,0,0,1,37.907,17.868ZM17.117,32.955a1.372,1.372,0,0,0-1.94,1.94l.277.277H12.326a4.58,4.58,0,0,1-4.554-4.554V27.49A1.386,1.386,0,0,0,5,27.49v3.128a7.335,7.335,0,0,0,7.326,7.326h3.128l-.277.277a1.34,1.34,0,0,0,0,1.94,1.435,1.435,0,0,0,1.98,0l2.614-2.614a1.313,1.313,0,0,0,.4-.99,1.481,1.481,0,0,0-.4-.99ZM19.889,7.572a1.386,1.386,0,0,0,0-2.772H6.426A1.412,1.412,0,0,0,5,6.186V19.65a1.4,1.4,0,0,0,1.386,1.386H19.85a1.4,1.4,0,0,0,1.386-1.386V12.086a1.386,1.386,0,1,0-2.772,0V18.3H7.772V7.612H19.889ZM40.56,38.934V31.371a1.386,1.386,0,1,0-2.772,0v6.217H27.1V26.9H39.174a1.386,1.386,0,0,0,0-2.772H25.71a1.4,1.4,0,0,0-1.386,1.386V38.974A1.4,1.4,0,0,0,25.71,40.36H39.174A1.438,1.438,0,0,0,40.56,38.934Z" transform="translate(-5 -4.8)" fill="#3e593c"/>
</svg>
