<svg xmlns="http://www.w3.org/2000/svg" width="34.32" height="34.32" viewBox="0 0 34.32 34.32">
  <g id="Group_1903" data-name="Group 1903" transform="translate(0 -0.27)">
    <g id="Path_607" data-name="Path 607" transform="translate(0 0.27)" fill="none">
      <path d="M2.86,0h28.6a2.86,2.86,0,0,1,2.86,2.86v28.6a2.86,2.86,0,0,1-2.86,2.86H2.86A2.86,2.86,0,0,1,0,31.46V2.86A2.86,2.86,0,0,1,2.86,0Z" stroke="none"/>
      <path d="M 2.860025405883789 1.999996185302734 C 2.385807037353516 1.999996185302734 1.999996185302734 2.385807037353516 1.999996185302734 2.860025405883789 L 1.999996185302734 31.46028518676758 C 1.999996185302734 31.93450546264648 2.385807037353516 32.32031631469727 2.860025405883789 32.32031631469727 L 31.46028518676758 32.32031631469727 C 31.93450546264648 32.32031631469727 32.32031631469727 31.93450546264648 32.32031631469727 31.46028518676758 L 32.32031631469727 2.860025405883789 C 32.32031631469727 2.385807037353516 31.93450546264648 1.999996185302734 31.46028518676758 1.999996185302734 L 2.860025405883789 1.999996185302734 M 2.860025405883789 -3.814697265625e-06 L 31.46028518676758 -3.814697265625e-06 C 33.03983688354492 -3.814697265625e-06 34.32031631469727 1.280475616455078 34.32031631469727 2.860025405883789 L 34.32031631469727 31.46028518676758 C 34.32031631469727 33.03983688354492 33.03983688354492 34.32031631469727 31.46028518676758 34.32031631469727 L 2.860025405883789 34.32031631469727 C 1.280475616455078 34.32031631469727 -3.814697265625e-06 33.03983688354492 -3.814697265625e-06 31.46028518676758 L -3.814697265625e-06 2.860025405883789 C -3.814697265625e-06 1.280475616455078 1.280475616455078 -3.814697265625e-06 2.860025405883789 -3.814697265625e-06 Z" stroke="none" fill="#3e593c"/>
    </g>
    <line id="Line_36" data-name="Line 36" x2="33.425" transform="translate(0.696 10.306)" fill="none" stroke="#3e593c" stroke-width="2"/>
    <g id="noun_108177_cc" transform="translate(6.524 16.541)">
      <path id="Shape" d="M8.487,1.105V0H0V1.105H2.938A2.61,2.61,0,0,1,5.5,2.8H0V3.9H5.5A2.609,2.609,0,0,1,2.938,5.6H0V6.7H2.563L5.242,11.67l1.047-.556L3.855,6.6A3.545,3.545,0,0,0,6.648,3.9h1.84V2.8H6.648a3.208,3.208,0,0,0-.92-1.693h2.76Z" fill="#3e593c" stroke="#3e593c" stroke-miterlimit="10" stroke-width="0.6"/>
    </g>
    <g id="Group_1066" data-name="Group 1066" transform="translate(18.123 17.632)">
      <path id="Path_609" data-name="Path 609" d="M10.3,3.441H2.1L4.815,1.117A.607.607,0,1,0,4.026.2L-.053,3.573a.688.688,0,0,0,0,.965L4.026,7.958a.623.623,0,0,0,.789-.965L2.1,4.669h8.2A.614.614,0,1,0,10.3,3.441Z" transform="translate(0.25 -0.021)" fill="#3e593c" stroke="#3e593c" stroke-width="0.5" fill-rule="evenodd"/>
    </g>
  </g>
</svg>
