<svg id="Group_1074" data-name="Group 1074" xmlns="http://www.w3.org/2000/svg" width="28" height="28" viewBox="0 0 28 28">
  <path id="Rectangle_1039" data-name="Rectangle 1039" d="M0,0H24a4,4,0,0,1,4,4V28a0,0,0,0,1,0,0H0a0,0,0,0,1,0,0V0A0,0,0,0,1,0,0Z" fill="#fff"/>
  <path id="Path_595" data-name="Path 595" d="M7.032.232l5.676,5.657a.819.819,0,0,1,0,1.143c-.31.31-.833-.47-1.143-.78L6.47,1.157,1.375,6.252c-.329.31-.833,1.09-1.143.78a.819.819,0,0,1,0-1.143L5.889.232A.819.819,0,0,1,7.032.232Z" transform="translate(17.871 7) rotate(90)" fill="#6c7174" fill-rule="evenodd"/>
</svg>
