<svg xmlns="http://www.w3.org/2000/svg" width="46.032" height="48.19" viewBox="0 0 46.032 48.19">
  <g id="noun_transactions_2496553_1_" data-name="noun_transactions_2496553 (1)" transform="translate(-2.9 -1.362)">
    <path id="Path_449" data-name="Path 449" d="M47.936,25.517a1,1,0,0,0-1,1A21,21,0,1,1,24.448,5.661l-.9.7a1.022,1.022,0,0,0,.6,1.841.869.869,0,0,0,.6-.2L28.13,5.412a1.063,1.063,0,0,0,.4-.846.942.942,0,0,0-.448-.8L24.7,1.53a.988.988,0,0,0-1.393.3.988.988,0,0,0,.3,1.393l.7.448A22.971,22.971,0,1,0,48.932,26.562,1.042,1.042,0,0,0,47.936,25.517Z" transform="translate(0 0)" fill="#6c7174"/>
    <circle id="Ellipse_192" data-name="Ellipse 192" cx="1.244" cy="1.244" r="1.244" transform="translate(45.896 19.993)" fill="#6c7174"/>
    <circle id="Ellipse_193" data-name="Ellipse 193" cx="1.244" cy="1.244" r="1.244" transform="translate(44.304 15.365)" fill="#6c7174"/>
    <circle id="Ellipse_194" data-name="Ellipse 194" cx="1.244" cy="1.244" r="1.244" transform="translate(41.318 11.035)" fill="#6c7174"/>
    <circle id="Ellipse_195" data-name="Ellipse 195" cx="1.244" cy="1.244" r="1.244" transform="translate(37.187 7.303)" fill="#6c7174"/>
    <circle id="Ellipse_196" data-name="Ellipse 196" cx="1.244" cy="1.244" r="1.244" transform="translate(32.261 4.715)" fill="#6c7174"/>
    <g id="Group_989" data-name="Group 989" transform="translate(24.739 16.589)">
      <path id="Path_453" data-name="Path 453" d="M48.254,31.743A1.153,1.153,0,0,1,47.1,30.59V18.975a1.157,1.157,0,1,1,2.31,0V30.59A1.153,1.153,0,0,1,48.254,31.743Z" transform="translate(-47.095 -17.75)" fill="#6c7174"/>
      <path id="Path_454" data-name="Path 454" d="M58.1,51.921a1.074,1.074,0,0,1-.3-.04l-9.815-2.566a1.157,1.157,0,0,1,.583-2.238l9.819,2.57a1.157,1.157,0,0,1-.291,2.274Z" transform="translate(-47.135 -35.358)" fill="#6c7174"/>
    </g>
  </g>
</svg>
