<svg width="100" height="100" viewBox="0 0 100 100" fill="none" xmlns="http://www.w3.org/2000/svg">
<circle cx="50" cy="50" r="50" fill="#F2F3F7"/>
<mask id="mask0" style="mask-type:alpha" maskUnits="userSpaceOnUse" x="25" y="25" width="50" height="50">
<rect x="25" y="25" width="50" height="50" fill="#C4C4C4"/>
</mask>
<g mask="url(#mask0)">
<path d="M62.5 67.8572H37.5C36.0792 67.8572 34.7166 67.2928 33.7119 66.2881C32.7072 65.2834 32.1428 63.9208 32.1428 62.5V33.9286C32.1428 33.455 32.331 33.0008 32.6659 32.6659C33.0007 32.331 33.455 32.1429 33.9286 32.1429H58.9286C59.4022 32.1429 59.8564 32.331 60.1912 32.6659C60.5261 33.0008 60.7143 33.455 60.7143 33.9286V55.3572H67.8571V62.5C67.8571 63.9208 67.2927 65.2834 66.2881 66.2881C65.2834 67.2928 63.9208 67.8572 62.5 67.8572ZM60.7143 58.9286V62.5C60.7143 62.9736 60.9024 63.4278 61.2373 63.7627C61.5722 64.0976 62.0264 64.2857 62.5 64.2857C62.9736 64.2857 63.4278 64.0976 63.7627 63.7627C64.0976 63.4278 64.2857 62.9736 64.2857 62.5V58.9286H60.7143ZM57.1428 64.2857V35.7143H35.7143V62.5C35.7143 62.9736 35.9024 63.4278 36.2373 63.7627C36.5722 64.0976 37.0264 64.2857 37.5 64.2857H57.1428ZM39.2857 41.0714H53.5714V44.6429H39.2857V41.0714ZM39.2857 48.2143H53.5714V51.7857H39.2857V48.2143ZM39.2857 55.3572H48.2143V58.9286H39.2857V55.3572Z" fill="#C7222A"/>
</g>
</svg>
