<svg width="100" height="100" viewBox="0 0 100 100" fill="none" xmlns="http://www.w3.org/2000/svg">
<circle cx="50" cy="50" r="50" fill="#F2F3F7"/>
<mask id="mask0" style="mask-type:alpha" maskUnits="userSpaceOnUse" x="25" y="25" width="50" height="50">
<rect x="25" y="25" width="50" height="50" fill="#C4C4C4"/>
</mask>
<g mask="url(#mask0)">
<path d="M72.3866 62.5651C72.2707 62.932 72.1896 63.3103 72.0274 63.6542C71.2511 65.2592 69.9418 66.0502 68.1575 66.0617C64.8207 66.0731 61.4838 66.0617 58.147 66.0617C49.5383 66.0617 40.9181 66.0617 32.3094 66.0617C30.2239 66.0617 28.6018 64.8809 28.1268 63.0007C28.0341 62.6454 27.9993 62.267 27.9993 61.9002C27.9762 54.1619 27.9762 46.4236 27.9762 38.6853C27.9762 36.2893 29.7373 34.5353 32.1588 34.5239C44.1738 34.5239 56.1773 34.5239 68.1923 34.5239C70.301 34.5239 71.8768 35.8193 72.317 37.8714C72.3286 37.9287 72.3634 37.9746 72.3866 38.0204C72.3866 46.2058 72.3866 54.3797 72.3866 62.5651ZM50.164 63.4822C56.1078 63.4822 62.04 63.4822 67.9837 63.4822C69.2235 63.4822 69.7796 62.932 69.7796 61.7053C69.7796 54.0931 69.7796 46.4924 69.7796 38.8802C69.7796 37.6421 69.2351 37.1033 67.9837 37.1033C56.1193 37.1033 44.2549 37.1033 32.3906 37.1033C31.1161 37.1033 30.5831 37.6421 30.5831 38.9032C30.5831 46.4924 30.5831 54.0931 30.5831 61.6824C30.5831 62.9549 31.1161 63.4822 32.3906 63.4822C38.3112 63.4822 44.2434 63.4822 50.164 63.4822Z" fill="#C7222A"/>
<path d="M38.1954 53.4396C36.1678 50.929 37.0715 48.0056 38.7747 46.6414C40.6053 45.1625 43.2702 45.2313 45.0197 46.779C46.6882 48.2693 47.3486 51.0895 45.4948 53.3479C46.1552 54.0358 46.8735 54.6663 47.4528 55.4C48.2871 56.4662 48.6462 57.7387 48.6926 59.08C48.7273 59.9742 48.206 60.5359 47.3138 60.5359C43.6525 60.5474 40.0028 60.5474 36.3416 60.5359C35.4262 60.5359 34.9049 59.9513 34.9512 59.0456C35.0671 56.7528 36.0751 54.9414 37.9752 53.6231C38.0332 53.5772 38.0911 53.5428 38.149 53.497C38.1722 53.4855 38.1838 53.4626 38.1954 53.4396ZM37.8014 57.945C40.5011 57.945 43.1543 57.945 45.8308 57.945C45.5643 56.4432 43.7568 55.0905 41.9609 55.0332C40.0839 54.9644 38.2417 56.2369 37.8014 57.945ZM41.8219 52.4423C43.0153 52.4423 44.0001 51.4793 44.0001 50.2985C44.0001 49.1062 43.0153 48.1317 41.7871 48.1432C40.5937 48.1547 39.6205 49.1291 39.6321 50.3099C39.6552 51.5022 40.6169 52.4423 41.8219 52.4423Z" fill="#C7222A"/>
<path d="M50.164 42.6175C45.6453 42.6175 41.1151 42.6175 36.5964 42.6175C36.3994 42.6175 36.1909 42.6175 35.9939 42.5831C35.3683 42.4684 34.9164 41.9067 34.9396 41.2991C34.9627 40.68 35.4378 40.1527 36.0634 40.0724C36.2025 40.0495 36.3531 40.0495 36.4921 40.0495C45.6106 40.0495 54.729 40.0495 63.8359 40.0495C64.6817 40.0495 65.1683 40.359 65.3421 40.9896C65.539 41.7118 65.0988 42.434 64.3572 42.5831C64.1603 42.6175 63.9517 42.6175 63.7548 42.6175C59.2361 42.6175 54.7058 42.6175 50.164 42.6175Z" fill="#C7222A"/>
<path d="M59.2708 46.9395C60.8697 46.9395 62.4802 46.928 64.0791 46.9395C65.0176 46.951 65.6317 47.8108 65.3305 48.6591C65.1335 49.1979 64.6469 49.5075 63.9633 49.5075C61.3216 49.5075 58.6683 49.5075 56.0267 49.5075C55.4937 49.5075 54.9607 49.5189 54.4277 49.5075C53.6399 49.496 53.0374 48.9228 53.049 48.2005C53.0606 47.4898 53.6399 46.9395 54.4046 46.928C56.0382 46.9395 57.6487 46.9395 59.2708 46.9395Z" fill="#C7222A"/>
<path d="M59.2824 52.4537C60.8697 52.4537 62.4571 52.4537 64.056 52.4537C64.589 52.4537 65.0061 52.6715 65.261 53.1415C65.5043 53.5772 65.4695 54.0243 65.1914 54.437C64.9481 54.8038 64.589 55.0102 64.1371 55.0102C60.8697 55.0102 57.6024 55.0216 54.3351 55.0102C53.6051 55.0102 53.0374 54.4026 53.049 53.7147C53.0606 53.004 53.6399 52.4537 54.4162 52.4422C56.0382 52.4422 57.6603 52.4537 59.2824 52.4537Z" fill="#C7222A"/>
<path d="M57.811 60.5359C56.6755 60.5359 55.5285 60.5589 54.393 60.5245C53.4313 60.5015 52.8289 59.6647 53.1417 58.8163C53.3271 58.3119 53.7094 57.9794 54.2424 57.9794C56.6408 57.9565 59.0275 57.9565 61.4259 57.9794C62.1211 57.9909 62.6309 58.587 62.6309 59.2634C62.6193 59.9398 62.1211 60.5015 61.4143 60.5245C60.2093 60.5589 59.0044 60.5359 57.811 60.5359Z" fill="#C7222A"/>
</g>
</svg>
