<svg width="40" height="40" viewBox="0 0 40 40" fill="none" xmlns="http://www.w3.org/2000/svg">
<path d="M29.688 6.64591C29.6868 6.64715 29.6859 6.64806 29.6852 6.64872L29.3 7.35004C26.1 5.70004 23.3333 5.00004 20.0167 5.00004C16.7167 5.00004 13.5833 5.78337 10.7333 7.35004L10.3523 6.64661C10.3521 6.64675 10.3518 6.64688 10.3516 6.64701C10.3483 6.64868 10.3463 6.64904 10.3446 6.64921C10.3421 6.64944 10.3375 6.64938 10.3312 6.64751C10.3218 6.64474 10.3109 6.63876 10.3011 6.6276C10.3004 6.6226 10.3005 6.61546 10.3032 6.60618C10.3055 6.59837 10.3087 6.59291 10.311 6.58996C10.3129 6.58755 10.3139 6.58707 10.3144 6.58681L10.3151 6.58641C13.2974 4.967 16.5661 4.13337 20.0167 4.13337C23.4285 4.13337 26.4031 4.88116 29.6984 6.57688C29.7068 6.58139 29.7103 6.58518 29.7116 6.58679C29.7124 6.58766 29.7129 6.58851 29.7134 6.58935C29.7141 6.59051 29.7146 6.59162 29.7149 6.59267C29.7155 6.59451 29.7155 6.59586 29.7154 6.5966L29.7154 6.59664C29.7154 6.59698 29.7153 6.59865 29.7132 6.60235L29.707 6.61388L29.7011 6.6256C29.6956 6.63673 29.6907 6.64292 29.688 6.64591ZM11.7654 10.1451L11.7668 10.1443C16.7712 7.56248 23.1982 7.54681 28.2175 10.1281L28.218 10.1284C30.6034 11.3529 32.6055 13.0844 34.1817 15.2975L34.1817 15.2975L34.1864 15.3039C34.1866 15.3043 34.1873 15.3051 34.1879 15.3078C34.1886 15.3111 34.189 15.3164 34.188 15.3227C34.1869 15.3289 34.1849 15.3336 34.1831 15.3366C34.1826 15.3373 34.1821 15.338 34.1816 15.3387C34.1804 15.3402 34.1789 15.3417 34.1765 15.3433C34.1664 15.3503 34.1585 15.3531 34.1531 15.3543C34.1473 15.3556 34.1425 15.3555 34.1391 15.3549C34.1364 15.3544 34.1345 15.3537 34.1331 15.353C34.1327 15.3528 34.1324 15.3526 34.1321 15.3524C34.1312 15.3519 34.1281 15.3499 34.1234 15.3432L34.1235 15.3432L34.1177 15.335C32.5453 13.1338 30.5482 11.3978 28.1814 10.188C23.1697 7.62104 16.7806 7.62002 11.7831 10.2058C9.39941 11.4329 7.40341 13.1856 5.83236 15.3851L5.82275 15.3985C5.82209 15.3983 5.82141 15.3981 5.8207 15.3979C5.81642 15.3966 5.81008 15.3941 5.8019 15.3894C5.79908 15.3869 5.79801 15.3853 5.79762 15.3846C5.79675 15.3833 5.79574 15.3811 5.79517 15.3777C5.79458 15.3742 5.79448 15.3694 5.79576 15.3636C5.79696 15.3583 5.79972 15.3503 5.80674 15.3402L5.15002 14.8834L5.8032 15.3453C7.38037 13.1149 9.38246 11.3683 11.7654 10.1451ZM16.25 35.5167C16.2493 35.5167 16.2486 35.5167 16.2479 35.5167L16.2472 35.5159L16.2324 35.501C14.8242 34.0929 14.0902 33.2181 13.0166 31.2792L13.0144 31.2753C11.9412 29.3622 11.3667 27.001 11.3667 24.4334C11.3667 19.9615 15.2047 16.25 20 16.25C24.7954 16.25 28.6334 19.9615 28.6334 24.4334C28.6334 24.4444 28.6313 24.4503 28.6303 24.4528C28.6291 24.4557 28.6276 24.4578 28.626 24.4594C28.6244 24.4609 28.6223 24.4624 28.6194 24.4637C28.6169 24.4647 28.6111 24.4667 28.6 24.4667C28.589 24.4667 28.5831 24.4647 28.5806 24.4637C28.5777 24.4624 28.5756 24.4609 28.574 24.4594C28.5724 24.4578 28.5709 24.4557 28.5697 24.4528C28.5687 24.4503 28.5667 24.4444 28.5667 24.4334C28.5667 19.914 24.6797 16.3167 20 16.3167C15.3204 16.3167 11.4333 19.914 11.4333 24.4334C11.4333 26.947 11.9913 29.3029 13.0855 31.2413C14.1956 33.2355 14.9795 34.1101 16.2891 35.437C16.3005 35.4502 16.3042 35.463 16.3042 35.475C16.3042 35.4824 16.3028 35.49 16.2992 35.4978C16.2886 35.5047 16.28 35.5089 16.2737 35.5114C16.2625 35.5159 16.2549 35.5167 16.25 35.5167ZM23.4859 31.0903L23.4822 31.0878C21.2091 29.547 19.8667 27.0569 19.8667 24.4334C19.8667 24.4223 19.8687 24.4165 19.8697 24.414C19.8709 24.4111 19.8724 24.409 19.874 24.4074C19.8756 24.4058 19.8777 24.4043 19.8806 24.4031C19.8831 24.402 19.889 24.4 19.9 24.4C19.9111 24.4 19.9169 24.402 19.9194 24.4031C19.9223 24.4043 19.9244 24.4058 19.926 24.4074C19.9267 24.4081 19.9274 24.4089 19.9281 24.4099C19.9289 24.411 19.9296 24.4124 19.9303 24.414C19.9313 24.4165 19.9333 24.4223 19.9333 24.4334C19.9333 27.0599 21.2744 29.5206 23.5195 31.0301C24.8573 31.9342 26.4033 32.35 28.2 32.35C28.6498 32.35 29.3627 32.2954 30.0713 32.1714L30.0713 32.1714L30.079 32.17C30.0835 32.1692 30.0856 32.1696 30.0867 32.1698C30.0884 32.1702 30.0911 32.1711 30.0944 32.1734C30.0976 32.1757 30.101 32.179 30.104 32.1837C30.1067 32.1878 30.1103 32.195 30.1125 32.2073L30.1134 32.2124C30.1142 32.2168 30.1138 32.2189 30.1136 32.2201C30.1134 32.2208 30.1132 32.2216 30.1128 32.2226C30.1122 32.2241 30.1113 32.2258 30.1099 32.2277C30.1077 32.231 30.1044 32.2344 30.0997 32.2373C30.0956 32.24 30.0884 32.2436 30.076 32.2458L30.076 32.2458L30.0651 32.2479C29.1834 32.418 28.4054 32.4334 28.2 32.4334C26.3535 32.4334 24.767 31.9692 23.4859 31.0903ZM19.9333 12.25C14.912 12.25 10.2868 15.0425 8.19533 19.4208C7.48592 20.8947 7.13335 22.5993 7.13335 24.4334C7.13335 25.797 7.25754 27.9485 8.30095 30.7309L8.30093 30.731L8.30334 30.7372C8.30598 30.7441 8.30629 30.7487 8.3062 30.7516C8.30608 30.7551 8.30526 30.7581 8.30425 30.7604C8.30413 30.7606 8.30401 30.7609 8.30389 30.7611L8.29217 30.7652L8.2795 30.77C8.27716 30.7709 8.27613 30.771 8.27471 30.7709C8.27246 30.7708 8.26817 30.7701 8.26284 30.7677C8.25738 30.7651 8.25371 30.7621 8.25199 30.7602L8.24931 30.7531C7.46487 28.6559 7.08335 26.584 7.08335 24.4334C7.08335 22.5364 7.44659 20.8394 8.13922 19.3768C10.2163 15.0206 14.842 12.1667 19.9333 12.1667C27.1149 12.1667 32.8833 17.6975 32.8833 24.4167C32.8833 26.6407 30.9765 28.5167 28.55 28.5167C26.1235 28.5167 24.2167 26.6407 24.2167 24.4167C24.2167 22.1406 22.2558 20.3834 19.95 20.3834C17.6442 20.3834 15.6834 22.1406 15.6834 24.4167C15.6834 27.4775 16.8668 30.3494 19.0367 32.5014L19.0373 32.502C20.725 34.1719 22.3648 35.104 24.8367 35.7878L24.8367 35.7879L24.8492 35.7911L24.8514 35.7918L24.852 35.792C24.8521 35.792 24.852 35.792 24.8521 35.7921C24.8524 35.7923 24.8544 35.794 24.8567 35.7981C24.8623 35.808 24.8628 35.8183 24.8609 35.8254L24.8558 35.8443L24.8522 35.8608C24.8517 35.8613 24.851 35.8619 24.8501 35.8626C24.8455 35.8616 24.8406 35.8605 24.8357 35.8593C22.3142 35.1602 20.7054 34.2423 18.9954 32.5641C16.8147 30.3981 15.6167 27.5199 15.6167 24.4334C15.6167 22.2094 17.5235 20.3334 19.95 20.3334C22.3765 20.3334 24.2833 22.2094 24.2833 24.4334C24.2833 26.7095 26.2442 28.4667 28.55 28.4667C30.8558 28.4667 32.8167 26.7095 32.8167 24.4334C32.8167 17.6638 26.9961 12.25 19.9333 12.25Z" fill="#C7222A" stroke="#C7222A" stroke-width="1.6"/>
</svg>
