<svg width="100" height="100" viewBox="0 0 100 100" fill="none" xmlns="http://www.w3.org/2000/svg">
<circle cx="50" cy="50" r="50" fill="#F2F3F7"/>
<mask id="mask0" style="mask-type:alpha" maskUnits="userSpaceOnUse" x="25" y="25" width="50" height="50">
<rect x="25" y="25" width="50" height="50" fill="#C4C4C4"/>
</mask>
<g mask="url(#mask0)">
<path d="M59.6049 42.1769H67.8571V45.5216H59.6049V42.1769ZM56.3041 50.5386H67.8571V53.8832H56.3041V50.5386ZM61.2554 58.9002H67.8571V62.2449H61.2554V58.9002ZM31.5476 67.2619C31.5476 63.7137 32.9387 60.3108 35.4148 57.8018C37.8909 55.2928 41.2493 53.8832 44.751 53.8832C48.2528 53.8832 51.6112 55.2928 54.0873 57.8018C56.5634 60.3108 57.9545 63.7137 57.9545 67.2619H54.6536C54.6536 64.6007 53.6103 62.0485 51.7532 60.1668C49.8961 58.2851 47.3774 57.2279 44.751 57.2279C42.1247 57.2279 39.6059 58.2851 37.7488 60.1668C35.8917 62.0485 34.8484 64.6007 34.8484 67.2619H31.5476ZM44.751 52.2109C39.2799 52.2109 34.8484 47.7207 34.8484 42.1769C34.8484 36.6331 39.2799 32.1429 44.751 32.1429C50.2222 32.1429 54.6536 36.6331 54.6536 42.1769C54.6536 47.7207 50.2222 52.2109 44.751 52.2109ZM44.751 48.8662C48.3985 48.8662 51.3528 45.8728 51.3528 42.1769C51.3528 38.481 48.3985 35.4875 44.751 35.4875C41.1036 35.4875 38.1493 38.481 38.1493 42.1769C38.1493 45.8728 41.1036 48.8662 44.751 48.8662Z" fill="#C7222A"/>
</g>
</svg>
