<svg width="100" height="100" viewBox="0 0 100 100" fill="none" xmlns="http://www.w3.org/2000/svg">
<circle cx="50" cy="50" r="50" fill="#F2F3F7"/>
<mask id="mask0" style="mask-type:alpha" maskUnits="userSpaceOnUse" x="25" y="25" width="50" height="50">
<rect x="25" y="25" width="50" height="50" fill="#C4C4C4"/>
</mask>
<g mask="url(#mask0)">
<path d="M34.059 64.9641C44.3759 64.9641 54.6368 64.9641 64.9538 64.9641C64.9538 64.7959 64.9538 64.639 64.9538 64.4708C64.9538 59.5156 64.9538 54.5716 64.9538 49.6164C64.9538 48.4841 65.7163 47.6097 66.7705 47.5088C67.9479 47.3967 68.9684 48.3048 68.9796 49.5155C68.9908 51.0851 68.9796 52.6434 68.9796 54.2129C68.9796 57.9349 68.9796 61.6569 68.9796 65.3789C68.9796 67.5874 67.5779 69 65.3687 69C54.7938 69 44.2189 69 33.6441 69C31.4349 69 30.0331 67.5986 30.0331 65.3789C30.0331 60.121 30.0331 54.8631 30.0331 49.6052C30.0331 48.159 31.3228 47.1949 32.6572 47.6097C33.5207 47.8788 34.059 48.6523 34.059 49.6277C34.059 52.6658 34.059 55.7039 34.059 58.7309C34.059 60.6479 34.059 62.565 34.059 64.482C34.059 64.6278 34.059 64.7847 34.059 64.9641Z" fill="#C7222A"/>
<path d="M51.5305 37.0379C51.5305 37.1836 51.5305 37.3406 51.5305 37.4863C51.5305 44.594 51.5305 51.7017 51.5305 58.7981C51.5305 60.0425 50.6558 60.9506 49.4896 60.9394C48.4467 60.9282 47.5608 60.0986 47.5047 59.0448C47.4935 58.8766 47.5047 58.7084 47.5047 58.5403C47.5047 51.5223 47.5047 44.4931 47.5047 37.4751C47.5047 37.3294 47.5047 37.1836 47.5047 36.9482C47.3365 37.1051 47.2243 37.206 47.1234 37.3069C45.8674 38.5626 44.6227 39.8294 43.3443 41.0626C42.2229 42.15 40.4398 41.7016 40.0025 40.2442C39.767 39.4706 39.9576 38.7756 40.5295 38.2038C41.3706 37.363 42.2116 36.5222 43.0527 35.6814C44.6787 34.0558 46.2936 32.4414 47.9196 30.8159C48.9625 29.7732 50.0951 29.7732 51.1381 30.8159C53.5603 33.2374 55.9825 35.6702 58.416 38.0805C59.0328 38.6971 59.3019 39.4034 59.044 40.2442C58.5954 41.7016 56.8124 42.1388 55.691 41.0514C54.4798 39.9079 53.3024 38.7083 52.1137 37.5199C51.9455 37.3518 51.7885 37.1724 51.6315 36.993C51.5978 37.0042 51.5642 37.0155 51.5305 37.0379Z" fill="#C7222A"/>
</g>
</svg>
