<svg width="100" height="100" viewBox="0 0 100 100" fill="none" xmlns="http://www.w3.org/2000/svg">
<circle cx="50" cy="50" r="50" fill="#F2F3F7"/>
<mask id="mask0" style="mask-type:alpha" maskUnits="userSpaceOnUse" x="25" y="25" width="50" height="50">
<rect x="25" y="25" width="50" height="50" fill="#C4C4C4"/>
</mask>
<g mask="url(#mask0)">
<path d="M65.6577 39.514L61.6957 43.514V34H43.8669V44H33.962V66H61.6957V60.486L65.6577 56.486V68.016C65.6572 68.5424 65.4497 69.047 65.0808 69.419C64.712 69.791 64.2119 70 63.6906 70H31.9672C31.707 69.9982 31.4498 69.9446 31.2101 69.8424C30.9705 69.7402 30.7531 69.5913 30.5704 69.4043C30.3878 69.2173 30.2434 68.9958 30.1455 68.7524C30.0477 68.5091 29.9982 68.2486 30 67.986V42L41.8919 30H63.6727C64.7663 30 65.6577 30.91 65.6577 31.984V39.514ZM67.1989 43.614L70 46.444L54.5919 62L51.7869 61.996L51.7908 59.172L67.1989 43.616V43.614Z" fill="#C7222A"/>
</g>
</svg>
