<svg xmlns="http://www.w3.org/2000/svg" width="541" height="306" viewBox="0 0 541 306">
  <g id="Group_2338" data-name="Group 2338" transform="translate(-0.328)">
    <g id="Promo_Banner" data-name="Promo Banner" transform="translate(0.328)">
      <rect id="Rectangle_136" data-name="Rectangle 136" width="541" height="306" rx="5" fill="#eaebe1"/>
      <g id="Group_558" data-name="Group 558" transform="translate(472 5)">
        <circle id="Ellipse_108" data-name="Ellipse 108" cx="3.5" cy="3.5" r="3.5" fill="#d9dccb"/>
        <ellipse id="Ellipse_117" data-name="Ellipse 117" cx="3.5" cy="4" rx="3.5" ry="4" transform="translate(0 13)" fill="#d9dccb"/>
        <circle id="Ellipse_122" data-name="Ellipse 122" cx="3.5" cy="3.5" r="3.5" transform="translate(0 27)" fill="#d9dccb"/>
        <ellipse id="Ellipse_127" data-name="Ellipse 127" cx="3.5" cy="4" rx="3.5" ry="4" transform="translate(0 41)" fill="#d9dccb"/>
        <circle id="Ellipse_132" data-name="Ellipse 132" cx="3.5" cy="3.5" r="3.5" transform="translate(0 54)" fill="#d9dccb"/>
        <ellipse id="Ellipse_109" data-name="Ellipse 109" cx="4" cy="3.5" rx="4" ry="3.5" transform="translate(13)" fill="#d9dccb"/>
        <circle id="Ellipse_116" data-name="Ellipse 116" cx="4" cy="4" r="4" transform="translate(13 13)" fill="#d9dccb"/>
        <ellipse id="Ellipse_121" data-name="Ellipse 121" cx="4" cy="3.5" rx="4" ry="3.5" transform="translate(13 27)" fill="#d9dccb"/>
        <circle id="Ellipse_126" data-name="Ellipse 126" cx="4" cy="4" r="4" transform="translate(13 41)" fill="#d9dccb"/>
        <ellipse id="Ellipse_131" data-name="Ellipse 131" cx="4" cy="3.5" rx="4" ry="3.5" transform="translate(13 54)" fill="#d9dccb"/>
        <circle id="Ellipse_110" data-name="Ellipse 110" cx="3.5" cy="3.5" r="3.5" transform="translate(28)" fill="#d9dccb"/>
        <ellipse id="Ellipse_115" data-name="Ellipse 115" cx="3.5" cy="4" rx="3.5" ry="4" transform="translate(28 13)" fill="#d9dccb"/>
        <circle id="Ellipse_120" data-name="Ellipse 120" cx="3.5" cy="3.5" r="3.5" transform="translate(28 27)" fill="#d9dccb"/>
        <ellipse id="Ellipse_125" data-name="Ellipse 125" cx="3.5" cy="4" rx="3.5" ry="4" transform="translate(28 41)" fill="#d9dccb"/>
        <circle id="Ellipse_130" data-name="Ellipse 130" cx="3.5" cy="3.5" r="3.5" transform="translate(28 54)" fill="#d9dccb"/>
        <circle id="Ellipse_111" data-name="Ellipse 111" cx="3.5" cy="3.5" r="3.5" transform="translate(42)" fill="#d9dccb"/>
        <ellipse id="Ellipse_114" data-name="Ellipse 114" cx="3.5" cy="4" rx="3.5" ry="4" transform="translate(42 13)" fill="#d9dccb"/>
        <circle id="Ellipse_119" data-name="Ellipse 119" cx="3.5" cy="3.5" r="3.5" transform="translate(42 27)" fill="#d9dccb"/>
        <ellipse id="Ellipse_124" data-name="Ellipse 124" cx="3.5" cy="4" rx="3.5" ry="4" transform="translate(42 41)" fill="#d9dccb"/>
        <circle id="Ellipse_129" data-name="Ellipse 129" cx="3.5" cy="3.5" r="3.5" transform="translate(42 54)" fill="#d9dccb"/>
        <circle id="Ellipse_112" data-name="Ellipse 112" cx="3.5" cy="3.5" r="3.5" transform="translate(57)" fill="#d9dccb"/>
        <ellipse id="Ellipse_113" data-name="Ellipse 113" cx="3.5" cy="4" rx="3.5" ry="4" transform="translate(57 13)" fill="#d9dccb"/>
        <circle id="Ellipse_118" data-name="Ellipse 118" cx="3.5" cy="3.5" r="3.5" transform="translate(57 27)" fill="#d9dccb"/>
        <ellipse id="Ellipse_123" data-name="Ellipse 123" cx="3.5" cy="4" rx="3.5" ry="4" transform="translate(57 41)" fill="#d9dccb"/>
        <circle id="Ellipse_128" data-name="Ellipse 128" cx="3.5" cy="3.5" r="3.5" transform="translate(57 54)" fill="#d9dccb"/>
      </g>
      <g id="Group_586" data-name="Group 586" transform="translate(456 7)" opacity="0.6">
        <g id="Group_581" data-name="Group 581">
          <circle id="Ellipse_136" data-name="Ellipse 136" cx="5" cy="5" r="5" fill="#e9ebdc"/>
          <circle id="Ellipse_137" data-name="Ellipse 137" cx="5" cy="5" r="5" transform="translate(17)" fill="#e9ebdc"/>
          <circle id="Ellipse_138" data-name="Ellipse 138" cx="5" cy="5" r="5" transform="translate(34)" fill="#e9ebdc"/>
          <circle id="Ellipse_139" data-name="Ellipse 139" cx="5" cy="5" r="5" transform="translate(52)" fill="#e9ebdc"/>
          <circle id="Ellipse_140" data-name="Ellipse 140" cx="5" cy="5" r="5" transform="translate(70)" fill="#e9ebdc"/>
        </g>
        <g id="Group_582" data-name="Group 582" transform="translate(0 16)">
          <circle id="Ellipse_136-2" data-name="Ellipse 136" cx="5" cy="5" r="5" fill="#e9ebdc"/>
          <circle id="Ellipse_137-2" data-name="Ellipse 137" cx="5" cy="5" r="5" transform="translate(17)" fill="#e9ebdc"/>
          <circle id="Ellipse_138-2" data-name="Ellipse 138" cx="5" cy="5" r="5" transform="translate(34)" fill="#e9ebdc"/>
          <circle id="Ellipse_139-2" data-name="Ellipse 139" cx="5" cy="5" r="5" transform="translate(52)" fill="#e9ebdc"/>
          <circle id="Ellipse_140-2" data-name="Ellipse 140" cx="5" cy="5" r="5" transform="translate(70)" fill="#e9ebdc"/>
        </g>
        <g id="Group_583" data-name="Group 583" transform="translate(0 33)">
          <circle id="Ellipse_136-3" data-name="Ellipse 136" cx="5" cy="5" r="5" fill="#e9ebdc"/>
          <circle id="Ellipse_137-3" data-name="Ellipse 137" cx="5" cy="5" r="5" transform="translate(17)" fill="#e9ebdc"/>
          <circle id="Ellipse_138-3" data-name="Ellipse 138" cx="5" cy="5" r="5" transform="translate(34)" fill="#e9ebdc"/>
          <circle id="Ellipse_139-3" data-name="Ellipse 139" cx="5" cy="5" r="5" transform="translate(52)" fill="#e9ebdc"/>
          <circle id="Ellipse_140-3" data-name="Ellipse 140" cx="5" cy="5" r="5" transform="translate(70)" fill="#e9ebdc"/>
        </g>
        <g id="Group_584" data-name="Group 584" transform="translate(0 52)">
          <circle id="Ellipse_136-4" data-name="Ellipse 136" cx="5" cy="5" r="5" fill="#e9ebdc"/>
          <circle id="Ellipse_137-4" data-name="Ellipse 137" cx="5" cy="5" r="5" transform="translate(17)" fill="#e9ebdc"/>
          <circle id="Ellipse_138-4" data-name="Ellipse 138" cx="5" cy="5" r="5" transform="translate(34)" fill="#e9ebdc"/>
          <circle id="Ellipse_139-4" data-name="Ellipse 139" cx="5" cy="5" r="5" transform="translate(52)" fill="#e9ebdc"/>
          <circle id="Ellipse_140-4" data-name="Ellipse 140" cx="5" cy="5" r="5" transform="translate(70)" fill="#e9ebdc"/>
        </g>
        <g id="Group_585" data-name="Group 585" transform="translate(0 70)">
          <circle id="Ellipse_136-5" data-name="Ellipse 136" cx="5" cy="5" r="5" fill="#e9ebdc"/>
          <circle id="Ellipse_137-5" data-name="Ellipse 137" cx="5" cy="5" r="5" transform="translate(17)" fill="#e9ebdc"/>
          <circle id="Ellipse_138-5" data-name="Ellipse 138" cx="5" cy="5" r="5" transform="translate(34)" fill="#e9ebdc"/>
          <circle id="Ellipse_139-5" data-name="Ellipse 139" cx="5" cy="5" r="5" transform="translate(52)" fill="#e9ebdc"/>
          <circle id="Ellipse_140-5" data-name="Ellipse 140" cx="5" cy="5" r="5" transform="translate(70)" fill="#e9ebdc"/>
        </g>
      </g>
    </g>
    <g id="Group_1574" data-name="Group 1574" transform="translate(47.798 65.253)">
      <g id="noun_commission_3115114" transform="translate(0 2.847)">
        <g id="Group_578" data-name="Group 578">
          <path id="Path_199" data-name="Path 199" d="M113.651,82.536H75.438l3.387-3.387a2.617,2.617,0,0,0,0-3.7L47.388,44.007a2.613,2.613,0,0,0-1.852-.768H6.24V38H1V85.156H6.24v-5.24H28.882L56.977,102.9a2.616,2.616,0,0,0,1.658.592h55.015a2.619,2.619,0,0,0,2.62-2.62V85.156A2.619,2.619,0,0,0,113.651,82.536Zm-2.62,15.719H59.57L31.476,75.269a2.616,2.616,0,0,0-1.658-.592H6.24v-26.2H44.452L73.269,77.3l-6.775,6.775L52.628,70.2l-3.7,3.7L64.642,89.628a2.618,2.618,0,0,0,3.7,0L70.2,87.776h40.832Z" transform="translate(-1 57.796)" fill="#6a7c55" stroke="#eaebe1" stroke-width="1"/>
          <path id="Path_200" data-name="Path 200" d="M109.593,85.357V58.677a36.677,36.677,0,0,0-73.354,0v26.68a7.84,7.84,0,0,0,2.62,15.237h68.114a7.84,7.84,0,0,0,2.62-15.237Zm-2.62,10H38.859a2.62,2.62,0,1,1,0-5.24h7.859v-5.24h-5.24v-26.2a31.437,31.437,0,0,1,62.875,0v26.2h-5.24v5.24h7.859a2.62,2.62,0,0,1,0,5.24Z" transform="translate(46.457 32.27)" fill="#6a7c55" stroke="#eaebe1" stroke-width="1"/>
          <path id="Path_202" data-name="Path 202" d="M72.437,32.958h-6.7L72.27,15.542a2.621,2.621,0,0,0-3.427-3.353L56.719,17.038,44.594,12.186a2.621,2.621,0,0,0-3.427,3.353L47.7,32.958H41V38.2H72.437Zm-19.143,0-5.14-13.7,7.59,3.036a2.605,2.605,0,0,0,1.946,0l7.59-3.036-5.137,13.7Z" transform="translate(62.882 16.577)" fill="#6a7c55" stroke="#eaebe1" stroke-width="1"/>
          <path id="Path_203" data-name="Path 203" d="M42.916,84.833a41.612,41.612,0,0,0,22.7-6.7L81.2,84.629a2.571,2.571,0,0,0,1.009.2A2.621,2.621,0,0,0,84.631,81.2l-6.494-15.59a41.9,41.9,0,1,0-35.22,19.219Zm0-78.593A36.65,36.65,0,0,1,73.026,63.825a2.63,2.63,0,0,0-.27,2.5l4.59,11.016-11.016-4.59a2.6,2.6,0,0,0-2.5.27A36.669,36.669,0,1,1,42.916,6.24Z" transform="translate(-1 -1)" fill="#6a7c55" stroke="#eaebe1" stroke-width="1"/>
          <path id="Path_204" data-name="Path 204" d="M18.479,28.958A10.479,10.479,0,1,0,8,18.479,10.49,10.49,0,0,0,18.479,28.958Zm0-15.719a5.24,5.24,0,1,1-5.24,5.24A5.245,5.245,0,0,1,18.479,13.24Z" transform="translate(10.338 10.338)" fill="#6a7c55" stroke="#eaebe1" stroke-width="1"/>
          <path id="Path_205" data-name="Path 205" d="M28.479,18A10.479,10.479,0,1,0,38.958,28.479,10.49,10.49,0,0,0,28.479,18Zm0,15.719a5.24,5.24,0,1,1,5.24-5.24A5.245,5.245,0,0,1,28.479,33.719Z" transform="translate(26.179 26.179)" fill="#6a7c55" stroke="#eaebe1" stroke-width="1"/>
          <rect id="Rectangle_139" data-name="Rectangle 139" width="59.278" height="5.24" transform="translate(19.105 61.023) rotate(-45)" fill="#6a7c55" stroke="#eaebe1" stroke-width="1"/>
        </g>
        <g id="noun_108177_cc" transform="translate(108.016 78.681)">
          <path id="Shape" d="M24.383,3.175V0H0V3.175H8.44c3.55,0,6.539,2.072,7.375,4.864H0v3.175H15.815c-.836,2.792-3.825,4.864-7.375,4.864H0v3.175H7.362l7.7,14.274,3.007-1.6L11.074,18.962A10.183,10.183,0,0,0,19.1,11.214h5.286V8.039H19.1a9.217,9.217,0,0,0-2.644-4.864h7.93Z" fill="#6c7174" stroke="#6c7174" stroke-miterlimit="10" stroke-width="0.6"/>
        </g>
      </g>
      <text id="Invest_in_ELSS_fund_Save_tax" data-name="Invest in ELSS fund 
&amp; Save tax" transform="translate(177.53 19.747)" font-size="27" font-family="PFHandbookPro-Bold, PF Handbook Pro" font-weight="700"><tspan x="0" y="0">Invest in ELSS fund </tspan><tspan x="0" y="27">&amp; Save tax</tspan></text>
      <text id="Lorem_ipsum_dolor_sit_amet_consectetur_adip_iscing_elit_sed_do_eiusmod" data-name="Lorem ipsum dolor sit amet, consectetur adip
iscing elit, sed do eiusmod" transform="translate(182.53 81.747)" fill="#6c7174" font-size="17" font-family="PFHandbookPro-Regular, PF Handbook Pro"><tspan x="0" y="0">Lorem ipsum dolor sit amet, consectetur adip</tspan><tspan x="0" y="22">iscing elit, sed do eiusmod</tspan></text>
      <g id="Group_1573" data-name="Group 1573" transform="translate(180.53 131)">
        <g id="Rectangle_138" data-name="Rectangle 138" transform="translate(0 -0.253)" fill="#fff" stroke="#6a7c55" stroke-width="1">
          <rect width="96" height="33" rx="3" stroke="none"/>
          <rect x="0.5" y="0.5" width="95" height="32" rx="2.5" fill="none"/>
        </g>
        <text id="Know_More" data-name="Know More" transform="translate(18 20.747)" fill="#6a7c55" font-size="16" font-family="PFHandbookPro-Regular, PF Handbook Pro"><tspan x="0" y="0">Know More</tspan></text>
      </g>
    </g>
  </g>
</svg>
