<svg xmlns="http://www.w3.org/2000/svg" xmlns:xlink="http://www.w3.org/1999/xlink" width="385" height="234" viewBox="0 0 385 234">
  <defs>
    <filter id="Rectangle_1154" x="0" y="0" width="385" height="234" filterUnits="userSpaceOnUse">
      <feOffset dy="3" input="SourceAlpha"/>
      <feGaussianBlur stdDeviation="3" result="blur"/>
      <feFlood flood-opacity="0.051"/>
      <feComposite operator="in" in2="blur"/>
      <feComposite in="SourceGraphic"/>
    </filter>
  </defs>
  <g id="Group_1621" data-name="Group 1621" transform="translate(9 6)">
    <g transform="matrix(1, 0, 0, 1, -9, -6)" filter="url(#Rectangle_1154)">
      <g id="Rectangle_1154-2" data-name="Rectangle 1154" transform="translate(9 6)" fill="#fff" stroke="#e2e2e2" stroke-width="1">
        <rect width="367" height="216" rx="5" stroke="none"/>
        <rect x="0.5" y="0.5" width="366" height="215" rx="4.5" fill="none"/>
      </g>
    </g>
    <text id="Income_Solutions" data-name="Income Solutions" transform="translate(32 77)" fill="#3e593c" font-size="22" font-family="PFHandbookPro-Bold, PF Handbook Pro" font-weight="700"><tspan x="0" y="0">Income Solutions</tspan></text>
    <text id="These_schemes_seek_to_invest_your_money_to_provide_regular_income" data-name="These schemes seek to invest your money to provide regular income" transform="translate(32 93)" fill="#6c7174" font-size="17" font-family="PFHandbookPro-Regular, PF Handbook Pro"><tspan x="0" y="13">These schemes seek to invest your money to </tspan><tspan x="0" y="31">provide regular income</tspan></text>
    <g id="Group_1563" data-name="Group 1563" transform="translate(2.193 2.193)">
      <circle id="Ellipse_401" data-name="Ellipse 401" cx="3" cy="3" r="3" transform="translate(-0.193 -0.193)" fill="#e8e8e8"/>
      <ellipse id="Ellipse_402" data-name="Ellipse 402" cx="3" cy="3.5" rx="3" ry="3.5" transform="translate(-0.193 9.807)" fill="#e8e8e8"/>
      <circle id="Ellipse_403" data-name="Ellipse 403" cx="3" cy="3" r="3" transform="translate(-0.193 20.807)" fill="#e8e8e8"/>
      <ellipse id="Ellipse_404" data-name="Ellipse 404" cx="3" cy="3.5" rx="3" ry="3.5" transform="translate(-0.193 31.807)" fill="#e8e8e8"/>
      <ellipse id="Ellipse_405" data-name="Ellipse 405" cx="3" cy="2.5" rx="3" ry="2.5" transform="translate(-0.193 42.807)" fill="#e8e8e8"/>
      <ellipse id="Ellipse_406" data-name="Ellipse 406" cx="3.5" cy="3" rx="3.5" ry="3" transform="translate(9.807 -0.193)" fill="#e8e8e8"/>
      <circle id="Ellipse_407" data-name="Ellipse 407" cx="3.5" cy="3.5" r="3.5" transform="translate(9.807 9.807)" fill="#e8e8e8"/>
      <ellipse id="Ellipse_408" data-name="Ellipse 408" cx="3.5" cy="3" rx="3.5" ry="3" transform="translate(9.807 20.807)" fill="#e8e8e8"/>
      <circle id="Ellipse_409" data-name="Ellipse 409" cx="3.5" cy="3.5" r="3.5" transform="translate(9.807 31.807)" fill="#e8e8e8"/>
      <ellipse id="Ellipse_410" data-name="Ellipse 410" cx="3.5" cy="2.5" rx="3.5" ry="2.5" transform="translate(9.807 42.807)" fill="#e8e8e8"/>
      <circle id="Ellipse_411" data-name="Ellipse 411" cx="3" cy="3" r="3" transform="translate(21.807 -0.193)" fill="#e8e8e8"/>
      <ellipse id="Ellipse_412" data-name="Ellipse 412" cx="3" cy="3.5" rx="3" ry="3.5" transform="translate(21.807 9.807)" fill="#e8e8e8"/>
      <circle id="Ellipse_413" data-name="Ellipse 413" cx="3" cy="3" r="3" transform="translate(21.807 20.807)" fill="#e8e8e8"/>
      <ellipse id="Ellipse_414" data-name="Ellipse 414" cx="3" cy="3.5" rx="3" ry="3.5" transform="translate(21.807 31.807)" fill="#e8e8e8"/>
      <ellipse id="Ellipse_415" data-name="Ellipse 415" cx="3" cy="2.5" rx="3" ry="2.5" transform="translate(21.807 42.807)" fill="#e8e8e8"/>
      <circle id="Ellipse_416" data-name="Ellipse 416" cx="3" cy="3" r="3" transform="translate(32.807 -0.193)" fill="#e8e8e8"/>
      <ellipse id="Ellipse_417" data-name="Ellipse 417" cx="3" cy="3.5" rx="3" ry="3.5" transform="translate(32.807 9.807)" fill="#e8e8e8"/>
      <circle id="Ellipse_418" data-name="Ellipse 418" cx="3" cy="3" r="3" transform="translate(32.807 20.807)" fill="#e8e8e8"/>
      <ellipse id="Ellipse_419" data-name="Ellipse 419" cx="3" cy="3.5" rx="3" ry="3.5" transform="translate(32.807 31.807)" fill="#e8e8e8"/>
      <ellipse id="Ellipse_420" data-name="Ellipse 420" cx="3" cy="2.5" rx="3" ry="2.5" transform="translate(32.807 42.807)" fill="#e8e8e8"/>
      <circle id="Ellipse_421" data-name="Ellipse 421" cx="3" cy="3" r="3" transform="translate(44.807 -0.193)" fill="#e8e8e8"/>
      <ellipse id="Ellipse_422" data-name="Ellipse 422" cx="3" cy="3.5" rx="3" ry="3.5" transform="translate(44.807 9.807)" fill="#e8e8e8"/>
      <circle id="Ellipse_423" data-name="Ellipse 423" cx="3" cy="3" r="3" transform="translate(44.807 20.807)" fill="#e8e8e8"/>
      <ellipse id="Ellipse_424" data-name="Ellipse 424" cx="3" cy="3.5" rx="3" ry="3.5" transform="translate(44.807 31.807)" fill="#e8e8e8"/>
      <ellipse id="Ellipse_425" data-name="Ellipse 425" cx="3" cy="2.5" rx="3" ry="2.5" transform="translate(44.807 42.807)" fill="#e8e8e8"/>
    </g>
    <g id="returns" transform="translate(281.335 18.64)">
      <circle id="Oval" cx="8.502" cy="8.502" r="8.502" transform="translate(47.609 20.404)" fill="none" stroke="#ddd" stroke-linecap="square" stroke-miterlimit="10" stroke-width="4"/>
      <circle id="Oval-2" data-name="Oval" cx="8.502" cy="8.502" r="8.502" transform="translate(20.404)" fill="none" stroke="#ddd" stroke-linecap="square" stroke-miterlimit="10" stroke-width="4"/>
      <path id="Shape" d="M42.427,13.6H61.212c9.58,0,10.2,6.8,10.2,6.8L31.405,35.792a10.2,10.2,0,0,1-8.226-.4L0,23.8V0H3.4c3.758,0,13.283,1.489,17,6.8h10.2a13.6,13.6,0,0,1,13.6,13.6H20.4" transform="translate(0 37.407)" fill="none" stroke="#ddd" stroke-miterlimit="10" stroke-width="4"/>
    </g>
    <g id="Group_1564" data-name="Group 1564" transform="translate(32.893 146.924)">
      <rect id="Rectangle_1155" data-name="Rectangle 1155" width="102" height="36" transform="translate(0.106 0.076)" fill="#3e593c"/>
      <text id="Invest_Now" data-name="Invest Now" transform="translate(16.106 23.076)" fill="#fff" font-size="17" font-family="PFHandbookPro-Regular, PF Handbook Pro"><tspan x="0" y="0">Invest Now</tspan></text>
    </g>
  </g>
</svg>
