<svg xmlns="http://www.w3.org/2000/svg" xmlns:xlink="http://www.w3.org/1999/xlink" width="385.31" height="234" viewBox="0 0 385.31 234">
  <defs>
    <filter id="Path_609" x="0" y="0" width="385.31" height="234" filterUnits="userSpaceOnUse">
      <feOffset dy="3" input="SourceAlpha"/>
      <feGaussianBlur stdDeviation="3" result="blur"/>
      <feFlood flood-opacity="0.051"/>
      <feComposite operator="in" in2="blur"/>
      <feComposite in="SourceGraphic"/>
    </filter>
  </defs>
  <g id="Group_1624" data-name="Group 1624" transform="translate(9 6)">
    <g transform="matrix(1, 0, 0, 1, -9, -6)" filter="url(#Path_609)">
      <g id="Path_609-2" data-name="Path 609" transform="translate(9 6)" fill="#fff">
        <path d="M 361.8274230957031 215.5 L 5.482240200042725 215.5 C 2.735012769699097 215.5 0.5000127553939819 213.2650146484375 0.5000127553939819 210.5177764892578 L 0.5000127553939819 5.482234954833984 C 0.5000127553939819 2.735007524490356 2.735012769699097 0.5000076293945312 5.482240200042725 0.5000076293945312 L 361.8274230957031 0.5000076293945312 C 364.5746459960938 0.5000076293945312 366.8096618652344 2.735007524490356 366.8096618652344 5.482234954833984 L 366.8096618652344 210.5177764892578 C 366.8096618652344 213.2650146484375 364.5746459960938 215.5 361.8274230957031 215.5 Z" stroke="none"/>
        <path d="M 5.48223876953125 1.000015258789062 C 3.0107421875 1.000015258789062 1 3.0107421875 1 5.48223876953125 L 1 210.5177764892578 C 1 212.9892730712891 3.0107421875 215 5.48223876953125 215 L 361.8274230957031 215 C 364.2989196777344 215 366.3096618652344 212.9892730712891 366.3096618652344 210.5177764892578 L 366.3096618652344 5.48223876953125 C 366.3096618652344 3.0107421875 364.2989196777344 1.000015258789062 361.8274230957031 1.000015258789062 L 5.48223876953125 1.000015258789062 M 5.48223876953125 1.52587890625e-05 L 361.8274230957031 1.52587890625e-05 C 364.8551635742188 1.52587890625e-05 367.3096618652344 2.4544677734375 367.3096618652344 5.48223876953125 L 367.3096618652344 210.5177764892578 C 367.3096618652344 213.5455017089844 364.8551635742188 216 361.8274230957031 216 L 5.48223876953125 216 C 2.4544677734375 216 0 213.5455017089844 0 210.5177764892578 L 0 5.48223876953125 C 0 2.4544677734375 2.4544677734375 1.52587890625e-05 5.48223876953125 1.52587890625e-05 Z" stroke="none" fill="#e2e2e2"/>
      </g>
    </g>
    <text id="Tax_Saving_Solution" data-name="Tax Saving Solution" transform="translate(30.34 77)" fill="#3e593c" font-size="23" font-family="PFHandbookPro-Bold, PF Handbook Pro" font-weight="700"><tspan x="0" y="0">Tax Saving Solution</tspan></text>
    <text id="These_schemes_seeks_to_provide_tax_efficient_return_on_your_investments." data-name="These schemes seeks to provide tax efficient return on your investments." transform="translate(29.34 92)" fill="#6c7174" font-size="17" font-family="PFHandbookPro-Regular, PF Handbook Pro"><tspan x="0" y="13">These schemes seeks to provide tax efficient </tspan><tspan x="0" y="31">return on your investments.</tspan></text>
    <g id="Group_1566" data-name="Group 1566" transform="translate(2.193 2.193)">
      <ellipse id="Ellipse_426" data-name="Ellipse 426" cx="2.5" cy="3" rx="2.5" ry="3" transform="translate(0.147 -0.193)" fill="#e8e8e8"/>
      <ellipse id="Ellipse_427" data-name="Ellipse 427" cx="2.5" cy="3.5" rx="2.5" ry="3.5" transform="translate(0.147 9.807)" fill="#e8e8e8"/>
      <ellipse id="Ellipse_428" data-name="Ellipse 428" cx="2.5" cy="3" rx="2.5" ry="3" transform="translate(0.147 20.807)" fill="#e8e8e8"/>
      <ellipse id="Ellipse_429" data-name="Ellipse 429" cx="2.5" cy="3.5" rx="2.5" ry="3.5" transform="translate(0.147 31.807)" fill="#e8e8e8"/>
      <circle id="Ellipse_430" data-name="Ellipse 430" cx="2.5" cy="2.5" r="2.5" transform="translate(0.147 42.807)" fill="#e8e8e8"/>
      <circle id="Ellipse_431" data-name="Ellipse 431" cx="3" cy="3" r="3" transform="translate(10.147 -0.193)" fill="#e8e8e8"/>
      <ellipse id="Ellipse_432" data-name="Ellipse 432" cx="3" cy="3.5" rx="3" ry="3.5" transform="translate(10.147 9.807)" fill="#e8e8e8"/>
      <circle id="Ellipse_433" data-name="Ellipse 433" cx="3" cy="3" r="3" transform="translate(10.147 20.807)" fill="#e8e8e8"/>
      <ellipse id="Ellipse_434" data-name="Ellipse 434" cx="3" cy="3.5" rx="3" ry="3.5" transform="translate(10.147 31.807)" fill="#e8e8e8"/>
      <ellipse id="Ellipse_435" data-name="Ellipse 435" cx="3" cy="2.5" rx="3" ry="2.5" transform="translate(10.147 42.807)" fill="#e8e8e8"/>
      <ellipse id="Ellipse_436" data-name="Ellipse 436" cx="2.5" cy="3" rx="2.5" ry="3" transform="translate(22.147 -0.193)" fill="#e8e8e8"/>
      <ellipse id="Ellipse_437" data-name="Ellipse 437" cx="2.5" cy="3.5" rx="2.5" ry="3.5" transform="translate(22.147 9.807)" fill="#e8e8e8"/>
      <ellipse id="Ellipse_438" data-name="Ellipse 438" cx="2.5" cy="3" rx="2.5" ry="3" transform="translate(22.147 20.807)" fill="#e8e8e8"/>
      <ellipse id="Ellipse_439" data-name="Ellipse 439" cx="2.5" cy="3.5" rx="2.5" ry="3.5" transform="translate(22.147 31.807)" fill="#e8e8e8"/>
      <circle id="Ellipse_440" data-name="Ellipse 440" cx="2.5" cy="2.5" r="2.5" transform="translate(22.147 42.807)" fill="#e8e8e8"/>
      <ellipse id="Ellipse_441" data-name="Ellipse 441" cx="2.5" cy="3" rx="2.5" ry="3" transform="translate(33.147 -0.193)" fill="#e8e8e8"/>
      <ellipse id="Ellipse_442" data-name="Ellipse 442" cx="2.5" cy="3.5" rx="2.5" ry="3.5" transform="translate(33.147 9.807)" fill="#e8e8e8"/>
      <ellipse id="Ellipse_443" data-name="Ellipse 443" cx="2.5" cy="3" rx="2.5" ry="3" transform="translate(33.147 20.807)" fill="#e8e8e8"/>
      <ellipse id="Ellipse_444" data-name="Ellipse 444" cx="2.5" cy="3.5" rx="2.5" ry="3.5" transform="translate(33.147 31.807)" fill="#e8e8e8"/>
      <circle id="Ellipse_445" data-name="Ellipse 445" cx="2.5" cy="2.5" r="2.5" transform="translate(33.147 42.807)" fill="#e8e8e8"/>
      <ellipse id="Ellipse_446" data-name="Ellipse 446" cx="2.5" cy="3" rx="2.5" ry="3" transform="translate(45.147 -0.193)" fill="#e8e8e8"/>
      <ellipse id="Ellipse_447" data-name="Ellipse 447" cx="2.5" cy="3.5" rx="2.5" ry="3.5" transform="translate(45.147 9.807)" fill="#e8e8e8"/>
      <ellipse id="Ellipse_448" data-name="Ellipse 448" cx="2.5" cy="3" rx="2.5" ry="3" transform="translate(45.147 20.807)" fill="#e8e8e8"/>
      <ellipse id="Ellipse_449" data-name="Ellipse 449" cx="2.5" cy="3.5" rx="2.5" ry="3.5" transform="translate(45.147 31.807)" fill="#e8e8e8"/>
      <circle id="Ellipse_450" data-name="Ellipse 450" cx="2.5" cy="2.5" r="2.5" transform="translate(45.147 42.807)" fill="#e8e8e8"/>
    </g>
    <g id="returns" transform="translate(281.335 18.64)">
      <circle id="Oval" cx="8.502" cy="8.502" r="8.502" transform="translate(47.609 20.404)" fill="none" stroke="#ddd" stroke-linecap="square" stroke-miterlimit="10" stroke-width="4"/>
      <circle id="Oval-2" data-name="Oval" cx="8.502" cy="8.502" r="8.502" transform="translate(20.404)" fill="none" stroke="#ddd" stroke-linecap="square" stroke-miterlimit="10" stroke-width="4"/>
      <path id="Shape" d="M42.427,13.6H61.212c9.58,0,10.2,6.8,10.2,6.8L31.405,35.792a10.2,10.2,0,0,1-8.226-.4L0,23.8V0H3.4c3.758,0,13.283,1.489,17,6.8h10.2a13.6,13.6,0,0,1,13.6,13.6H20.4" transform="translate(0 37.407)" fill="none" stroke="#ddd" stroke-miterlimit="10" stroke-width="4"/>
    </g>
    <g id="Group_1567" data-name="Group 1567" transform="translate(30.701 146.924)">
      <rect id="Rectangle_1156" data-name="Rectangle 1156" width="102" height="36" transform="translate(-0.36 0.076)" fill="#3e593c"/>
      <text id="Invest_Now" data-name="Invest Now" transform="translate(16.64 23.076)" fill="#fff" font-size="17" font-family="PFHandbookPro-Regular, PF Handbook Pro"><tspan x="0" y="0">Invest Now</tspan></text>
    </g>
  </g>
</svg>
