<svg width="35" height="35" viewBox="0 0 35 35" fill="none" xmlns="http://www.w3.org/2000/svg">
<path d="M23.3333 30.625V27.7083C23.3333 26.1612 22.7187 24.6775 21.6247 23.5835C20.5307 22.4896 19.047 21.875 17.4999 21.875H7.29159C5.74449 21.875 4.26076 22.4896 3.1668 23.5835C2.07283 24.6775 1.45825 26.1612 1.45825 27.7083V30.625" stroke="#3E593C" stroke-width="2" stroke-linecap="round" stroke-linejoin="round"/>
<path d="M12.3958 16.0417C15.6175 16.0417 18.2292 13.43 18.2292 10.2083C18.2292 6.98667 15.6175 4.375 12.3958 4.375C9.17417 4.375 6.5625 6.98667 6.5625 10.2083C6.5625 13.43 9.17417 16.0417 12.3958 16.0417Z" stroke="#3E593C" stroke-width="2" stroke-linecap="round" stroke-linejoin="round"/>
<path d="M24.7917 16.0417L27.7084 18.9583L33.5418 13.125" stroke="#3E593C" stroke-width="2" stroke-linecap="round" stroke-linejoin="round"/>
</svg>
